<svg xmlns="http://www.w3.org/2000/svg" xmlns:xlink="http://www.w3.org/1999/xlink" width="39.358" height="39.346" viewBox="0 0 39.358 39.346">
    <defs>
        <linearGradient id="linear-gradient" x1="0.5" x2="0.5" y2="1" gradientUnits="objectBoundingBox">
            <stop offset="0" stop-color="#fff"/>
            <stop offset="1" stop-color="#afafaf"/>
        </linearGradient>
    </defs>
    <path id="Path_16670" data-name="Path 16670" d="M40.286,39.175a19.679,19.679,0,1,0-29.965,0l-3.88,3.969a1.653,1.653,0,0,0,.034,2.415,1.9,1.9,0,0,0,1.275.537A1.746,1.746,0,0,0,9,45.526l3.869-3.857a19.671,19.671,0,0,0,24.867,0l3.757,3.857a1.82,1.82,0,0,0,1.286.57,1.843,1.843,0,0,0,1.252-.537,1.659,1.659,0,0,0,.145-2.415ZM26.869,26.652A1.57,1.57,0,0,1,25.3,28.218H16.135a1.565,1.565,0,1,1,0-3.131h7.6v-11.4a1.565,1.565,0,1,1,3.131,0Z" transform="translate(-5.625 -6.75)" fill="url(#linear-gradient)"/>
</svg>
