<svg id="Group_8861" data-name="Group 8861" xmlns="http://www.w3.org/2000/svg" width="74.805" height="141.237" viewBox="0 0 74.805 141.237">
    <path id="Path_33" data-name="Path 33" d="M1469.763,91.486s-1.577-6.3,2.318-9.491a7.749,7.749,0,0,1,10.375,0,10.376,10.376,0,0,1,2.341,12.132c-2.479,5.913-3.014,4.509-1.917,8.865s2.443,7.365.248,9.348-5.595,1.452-5.913-1.027-.605-11.294-.834-12.587S1469.763,91.486,1469.763,91.486Z" transform="translate(-1440.622 -80.007)" fill="#fccca2"/>
    <g id="Group_8838" data-name="Group 8838" transform="translate(4.378 65.955)">
        <g id="Group_8837" data-name="Group 8837">
            <g id="Group_8836" data-name="Group 8836">
                <path id="Path_34" data-name="Path 34" d="M1323.458,484.7a4.6,4.6,0,0,0-.91,1.344,7.571,7.571,0,0,1-1.1,1.583,17.627,17.627,0,0,0-1.526,2.7,13.408,13.408,0,0,1-.092,2c-.168.4-.609,1.176-.251,1.306s.947-.459.947-.459a.543.543,0,0,0,.148.585.937.937,0,0,0,.927.224s.121.466.391.58a1.192,1.192,0,0,0,.961.062,1.1,1.1,0,0,0,.65.37,1,1,0,0,0,.9-.329s.664.283.948,0a3.385,3.385,0,0,0,.493-.921,11.029,11.029,0,0,0,.451-5.085,5.573,5.573,0,0,1,.776-3.879Z" transform="translate(-1319.446 -484.705)" fill="#eea886"/>
            </g>
        </g>
    </g>
    <path id="Path_35" data-name="Path 35" d="M1307.842,562.292a7.555,7.555,0,1,1-7.554-7.554A7.555,7.555,0,0,1,1307.842,562.292Z" transform="translate(-1292.708 -477.37)" fill="#e55353"/>
    <g id="Group_8839" data-name="Group 8839" transform="translate(0 72.148)">
        <path id="Path_36" data-name="Path 36" d="M1307.591,534.171l-1.153-.182c.012-.074.8-5.358-1.672-8.242a6.595,6.595,0,0,0-9.212,0c-2.474,2.891-1.681,8.19-1.672,8.243l-1.152.181c-.038-.239-.887-5.877,1.935-9.179a7.747,7.747,0,0,1,10.991,0C1308.478,528.294,1307.628,533.932,1307.591,534.171Zm-.576-.091-.576-.09h0Z" transform="translate(-1292.58 -522.705)" fill="#e55353"/>
    </g>
    <path id="Path_37" data-name="Path 37" d="M1641.7,187.447a7.555,7.555,0,1,1-7.555-7.554A7.555,7.555,0,0,1,1641.7,187.447Z" transform="translate(-1572.152 -163.614)" fill="#e55353"/>
    <path id="Path_38" data-name="Path 38" d="M1539.806,180a10.3,10.3,0,0,1,6.322.755c3.627,1.524,3.256.961,7.121,1.851s4.346,1.337,4.346,1.337a35.783,35.783,0,0,0,1.659-5.7c.271-2.061.655-6.993.655-6.993l3.9.555s-.029,7.906-.444,10.663c-1.009,6.711-1.487,7.936-2.627,7.915a37.175,37.175,0,0,1-7.964-.523c-2.6-.639-5.767-1.109-8.063-.009Z" transform="translate(-1499.515 -156.377)" fill="#eea886"/>
    <path id="Path_39" data-name="Path 39" d="M1448,239.772a12.016,12.016,0,0,0,.619,3.794c.314,1.133,1.32,5.3,1.32,5.3s-8.3,2.51-20.828.228c0,0,.818-3.236,1.113-4.836a12.738,12.738,0,0,0,.42-4.119c-.059-.446-.24-1.292-.47-2.294-.592-2.571-1.509-6.164-1.546-6.621-.053-.638-3.5-4.141-.426-8.333,0,0,.8-4.353,1.008-5.521,0,0,5.361-2.441,6.795-2.653s6.741,0,6.741,0a45.059,45.059,0,0,0,6.157,1.964c1.646.212,1.039,5.1,1.039,5.1a19.7,19.7,0,0,1,1.1,5.58,5.048,5.048,0,0,1-1.6,3.973c-.076.151-.715,3.737-1.115,6.235h0C1448.153,238.582,1448.03,239.418,1448,239.772Z" transform="translate(-1405.031 -192.686)" fill="#eea886"/>
    <path id="Path_40" data-name="Path 40" d="M1355.689,231.489a20.525,20.525,0,0,0-3.478,1.408c-1.235.737-2.809,3.214-3.287,5.244s-.945,5.263-1.582,7.254-2.428,7.126-3.344,9-1.752,9.673-2.309,11.545-2.6,8.107-2.6,8.107l3.237,1.646s6.569-14.41,7.205-16.6.757-4.857,1.353-6.488,3.224-7.63,3.623-8.771S1359.378,231.993,1355.689,231.489Z" transform="translate(-1331.509 -206.802)" fill="#eea886"/>
    <path id="Path_41" data-name="Path 41" d="M1377.208,443.88a1.145,1.145,0,0,0-1.447.778c-.748,1.939-3.264,6.859-5.374,11.287a.057.057,0,0,0-.007.011c-.942,1.976-1.8,3.853-2.39,5.322-1.906,4.768-6.935,11.632-7.218,13.714s.553,4.345.676,7.662c.083,2.262-.4,17.121-.5,19.935l-.451.495c-2.963,1.791-4.855.557-4.855.557s-2.628-16.84-2.812-21.216c-.153-3.614-1.231-6.069-.783-10.412.223-2.154,2.355-5.95,2.672-8.293.245-1.808,2.287-6.957,3.72-11.355.424-1.3.792-2.536,1.047-3.6a91.019,91.019,0,0,1,4.648-13.005c.719-1.546,1.8-3.78,1.865-3.918a.015.015,0,0,1,0-.007l10.79-.015Z" transform="translate(-1342.267 -374.484)" fill="#eea886"/>
    <path id="Path_42" data-name="Path 42" d="M1479.6,501.3s-1.594,1.5-4.555-.295c0,0-5.525-14.809-6.813-16.956a39.943,39.943,0,0,1-3.575-9.883c-.282-2.082-2.362-4.332-4.268-9.1-.8-2-2.621-5.554-4.546-9.221-2.67-5.086-5.545-10.383-6.175-12.013a1.069,1.069,0,0,0-1.124-.853,1.683,1.683,0,0,0-.407.1L1437.8,431.159l11.866-.177,9.679-.146s1.211,2.5,1.953,4.1a89.692,89.692,0,0,1,4.972,13.259c.273,1.141.607,2.479.958,3.883,1.093,4.334,2.368,9.3,2.607,11.071a25.582,25.582,0,0,0,2.512,7.749c1.082,1.876,3.573,7.4,4.019,10.994S1479.6,501.3,1479.6,501.3Z" transform="translate(-1414.13 -373.66)" fill="#eea886"/>
    <path id="Path_43" data-name="Path 43" d="M1472.573,104.314a12.667,12.667,0,0,0-.956,9.667c1.594,5.63,3.875,5.987,5.757,5.417,2.284-.692,4.47-5.452,4.841-7.577s1.789-7.228-3.694-7.878C1476.005,103.644,1473.458,103.73,1472.573,104.314Z" transform="translate(-1442 -99.901)" fill="#eea886"/>
    <path id="Path_44" data-name="Path 44" d="M1486.5,185.472s-.042,6.123.8,7.829-7.557.652-7.557.652,1.03-6.919.659-8.579S1486.5,185.472,1486.5,185.472Z" transform="translate(-1449.238 -167.605)" fill="#eea886"/>
    <path id="Path_45" data-name="Path 45" d="M1471.008,103.078s2.082-4.886,4.135-4.709c0,0,4.009,5.225,7.528,7.251,0,0,4.333-7.109-5.864-10.19C1476.807,95.43,1470.626,92.987,1471.008,103.078Z" transform="translate(-1441.915 -92.699)" fill="#fccca2"/>
    <path id="Path_46" data-name="Path 46" d="M1486.266,192.455s1.338,1.613,2.805,1.361a4.975,4.975,0,0,0,2.294-.98,2.756,2.756,0,0,1-2.454,1.606C1487.384,194.442,1486.266,192.455,1486.266,192.455Z" transform="translate(-1454.7 -174.129)" fill="#a77860"/>
    <path id="Path_47" data-name="Path 47" d="M1446.254,215.166s2.615,4.261,3.258,5.664c0,0,3.445,6.516-.509,9.554a61.078,61.078,0,0,1-1.115,6.234,48.877,48.877,0,0,0-18.144.282s-1.547-5.839-1.547-6.623c0,0-3.715-4.538-.425-8.333,0,0,2.926-5.921,3.168-6.47A16.75,16.75,0,0,1,1446.254,215.166Z" transform="translate(-1404.601 -191.738)" fill="#3f74a0"/>
    <path id="Path_48" data-name="Path 48" d="M1467.944,212.271s-4.548,10.03,4.13,10.308,5.319-9.39,5.08-10.317C1477.154,212.262,1473.56,210.022,1467.944,212.271Z" transform="translate(-1438.367 -189.877)" fill="#eea886"/>
    <path id="Path_49" data-name="Path 49" d="M1333.3,864.443a1.814,1.814,0,0,1-1.208.332c-.677-.08-2.667-.916-3.543-.557s-1.353,4.259-3.065,5.215-6.847,3.941-6.569,6.488c.281,2.573,7.205,1.871,9-.239s3.344-1.075,4.777-2.548S1333.077,865.907,1333.3,864.443Z" transform="translate(-1314.612 -736.338)" fill="#dbdff0"/>
    <path id="Path_50" data-name="Path 50" d="M1662.454,851.952a1.676,1.676,0,0,0,1.2.384c.677-.08,2.667-.916,3.543-.557s1.353,4.259,3.065,5.215,6.847,3.941,6.568,6.488c-.281,2.572-7.205,1.871-9-.239s-3.344-1.075-4.777-2.548S1662.674,853.416,1662.454,851.952Z" transform="translate(-1602.033 -725.927)" fill="#dbdff0"/>
    <g id="Group_8841" data-name="Group 8841" transform="translate(5.407 71.006)">
        <g id="Group_8840" data-name="Group 8840">
            <path id="Path_51" data-name="Path 51" d="M1325.776,518.85s.534-2.413,1.29-2.8.614.5.614.5.127-.873.844-.849.494,1.047.494,1.047a.714.714,0,0,1,.966-.355c.689.283.308,1.09.308,1.09s.9-.686,1.147.2a3.7,3.7,0,0,1-.7,2.927s-.3.32-.948,0a.989.989,0,0,1-1.555-.041s-1.2.368-1.352-.642C1326.887,519.929,1325.587,520.247,1325.776,518.85Z" transform="translate(-1325.757 -515.702)" fill="#db9c7c"/>
        </g>
    </g>
    <g id="Group_8842" data-name="Group 8842" transform="translate(61.324 16.606)">
        <path id="Path_52" data-name="Path 52" d="M1671.993,181.9a18.315,18.315,0,0,1-1.116,2.431c-.5.807-2.016-2.364-2.016-2.364Z" transform="translate(-1668.861 -181.901)" fill="#eea886"/>
    </g>
    <g id="Group_8843" data-name="Group 8843" transform="translate(58.56 7.991)">
        <path id="Path_53" data-name="Path 53" d="M1653.833,137.624s-1.526-2.153-1.749-2.489a6.363,6.363,0,0,1-.094-2.753,7.38,7.38,0,0,1,1.059-3.087,1.133,1.133,0,0,1,.918-.237,2.177,2.177,0,0,1,1.016.436,1.326,1.326,0,0,1,1.256.249,1.154,1.154,0,0,1,1.2.459.967.967,0,0,1,1.013.332,8.762,8.762,0,0,0,.113,1.546,26.227,26.227,0,0,1-.764,5.578S1656.806,139,1653.833,137.624Z" transform="translate(-1651.906 -129.043)" fill="#eea886"/>
    </g>
    <g id="Group_8844" data-name="Group 8844" transform="translate(61.255 12.115)">
        <path id="Path_54" data-name="Path 54" d="M1668.441,155.135a6.5,6.5,0,0,1,1.347,1.051c.218.356,2.47-1.609,2.47-1.609S1669.323,153.786,1668.441,155.135Z" transform="translate(-1668.441 -154.347)" fill="#cf8c6c"/>
    </g>
    <g id="Group_8845" data-name="Group 8845" transform="translate(54.409 11.058)">
        <path id="Path_55" data-name="Path 55" d="M1641.443,159.326l-1.153-.182c.012-.074.8-5.358-1.672-8.242a6.595,6.595,0,0,0-9.212,0c-2.474,2.891-1.68,8.189-1.672,8.243l-1.152.181c-.038-.239-.888-5.877,1.935-9.179a7.747,7.747,0,0,1,10.991,0C1642.331,153.449,1641.48,159.087,1641.443,159.326Zm-.576-.091-.576-.091h0Z" transform="translate(-1626.432 -147.86)" fill="#e55353"/>
    </g>
    <g id="Group_8846" data-name="Group 8846" transform="translate(59.611 7.939)">
        <path id="Path_56" data-name="Path 56" d="M1658.4,129.361s-.227,3.281.3,3.383a.836.836,0,0,0,.778-.178l.519,1.393s.864.728,1.4-.426c0,0,.737.764,1.126-.413,0,0,.711.287.987-.226a10.981,10.981,0,0,0,.335-2.63s-.189-.453-1.013-.332a1.136,1.136,0,0,0-1.2-.459,1.248,1.248,0,0,0-1.256-.249s-1.042-.983-1.933-.2C1658.444,129.024,1658.408,129.223,1658.4,129.361Z" transform="translate(-1658.35 -128.721)" fill="#db9c7c"/>
    </g>
    <g id="Group_8847" data-name="Group 8847" transform="translate(58.734 11.058)">
        <path id="Path_57" data-name="Path 57" d="M1652.974,150.781a11.176,11.176,0,0,1,2.265-2.709c.249-.175.522-.3.779-.135s.344.746-.118,1.609a8.264,8.264,0,0,0-.665,2.19S1654.5,152.484,1652.974,150.781Z" transform="translate(-1652.974 -147.86)" fill="#eea886"/>
    </g>
    <path id="Path_58" data-name="Path 58" d="M1461.156,359.721s-8.3,2.51-20.828.228c0,0,.818-3.236,1.113-4.836a12.738,12.738,0,0,0,.42-4.119c-.059-.446-.24-1.292-.47-2.294a27.76,27.76,0,0,1,18.143-.282c-.162,1.015-.286,1.852-.317,2.206a12.013,12.013,0,0,0,.619,3.794C1460.15,355.552,1461.156,359.721,1461.156,359.721Z" transform="translate(-1416.249 -303.538)" fill="#3f74a0"/>
    <path id="Path_59" data-name="Path 59" d="M1517.772,452.079c-4.554.241-11.379,3.769-11.379,3.769-2.671-5.086-5.545-10.383-6.175-12.013a1.069,1.069,0,0,0-1.124-.853c-.687-6.175-1.491-9.928-.29-12.061l11.085-.083s1.211,2.5,1.953,4.1a89.692,89.692,0,0,1,4.972,13.259C1517.087,449.336,1517.421,450.674,1517.772,452.079Z" transform="translate(-1464.678 -373.66)" fill="#3c3f66"/>
    <path id="Path_60" data-name="Path 60" d="M1410.587,443.88a1.145,1.145,0,0,0-1.447.778c-.748,1.939-3.264,6.859-5.374,11.287a.064.064,0,0,0-.007.011,54.775,54.775,0,0,0-11.938-3.592h0s3.687-14.807,7.561-20.522a.014.014,0,0,1,0-.007l10.79-.015Z" transform="translate(-1375.647 -374.484)" fill="#3c3f66"/>
    <path id="Path_61" data-name="Path 61" d="M1437.594,424.975s9.5.2,20.828-.227l.5,1.389s-8.375,1.591-21.856.175Z" transform="translate(-1413.515 -368.565)" fill="#30597a"/>
</svg>
