<svg xmlns="http://www.w3.org/2000/svg" width="20.594" height="20.594" viewBox="0 0 20.594 20.594">
    <path id="Icon_awesome-arrow-circle-right" data-name="Icon awesome-arrow-circle-right" d="M10.86.563a10.3,10.3,0,1,1-10.3,10.3A10.3,10.3,0,0,1,10.86.563ZM9.66,6.525l3.135,3.006H5.213a.994.994,0,0,0-1,1v.664a.994.994,0,0,0,1,1h7.582L9.66,15.195a1,1,0,0,0-.017,1.424l.457.453a.992.992,0,0,0,1.408,0l5.51-5.506a.992.992,0,0,0,0-1.408l-5.51-5.514a.992.992,0,0,0-1.408,0L9.643,5.1A1,1,0,0,0,9.66,6.525Z" transform="translate(-0.563 -0.563)" fill="#918cef"/>
</svg>
