<svg xmlns="http://www.w3.org/2000/svg" width="11.763" height="14.712" viewBox="0 0 11.763 14.712">
    <g id="Icon_ionic-ios-notifications" data-name="Icon ionic-ios-notifications" transform="translate(-6.761 -3.93)">
        <path id="Path_518" data-name="Path 518" d="M16.376,30.285a1.733,1.733,0,0,0,1.769-1.949H14.6A1.734,1.734,0,0,0,16.376,30.285Z" transform="translate(-3.742 -11.643)" fill="#C5CCD7"/>
        <path id="Path_519" data-name="Path 519" d="M18.375,14.825c-.566-.746-1.68-1.184-1.68-4.526,0-3.431-1.515-4.81-2.927-5.14-.132-.033-.228-.077-.228-.217V4.835a.9.9,0,1,0-1.794,0v.107c0,.136-.1.184-.228.217C10.1,5.493,8.59,6.868,8.59,10.3c0,3.342-1.114,3.776-1.68,4.526a.73.73,0,0,0,.585,1.169h10.3A.73.73,0,0,0,18.375,14.825Z" fill="#C5CCD7"/>
    </g>
</svg>
