<svg xmlns="http://www.w3.org/2000/svg" width="15.003" height="13.698" viewBox="0 0 15.003 13.698">
    <path id="Icon_material-add-a-photo" data-name="Icon material-add-a-photo" d="M1.957,3.457V1.5h1.3V3.457H5.218v1.3H3.261V6.718h-1.3V4.761H0v-1.3ZM3.914,7.371V5.414H5.871V3.457h4.566l1.194,1.3H13.7a1.308,1.308,0,0,1,1.3,1.3v7.827a1.308,1.308,0,0,1-1.3,1.3H3.261a1.308,1.308,0,0,1-1.3-1.3V7.371ZM8.48,13.241A3.261,3.261,0,1,0,5.218,9.98,3.263,3.263,0,0,0,8.48,13.241ZM6.392,9.98A2.087,2.087,0,1,0,8.48,7.892,2.085,2.085,0,0,0,6.392,9.98Z" transform="translate(0 -1.5)" fill="#acaba9"/>
</svg>
