<svg xmlns="http://www.w3.org/2000/svg" width="18" height="18" viewBox="0 0 18 18">
    <g id="Group_8798" data-name="Group 8798" transform="translate(-77 -256)">
        <circle id="Ellipse_2" data-name="Ellipse 2" cx="9" cy="9" r="9" transform="translate(77 256)" fill="#df533e"/>
        <g id="Icon_ionic-ios-camera" data-name="Icon ionic-ios-camera" transform="translate(82 262)">
            <path id="Path_1" data-name="Path 1" d="M16.491,16.56a1.267,1.267,0,1,1-1.267-1.267A1.267,1.267,0,0,1,16.491,16.56Z" transform="translate(-10.994 -12.969)" fill="#fff"/>
            <path id="Path_2" data-name="Path 2" d="M12.289,8.933h-1.2a.358.358,0,0,1-.264-.119c-.626-.7-.861-.939-1.117-.939H7.823c-.258,0-.511.238-1.139.941a.351.351,0,0,1-.262.117h-.09V8.756a.177.177,0,0,0-.176-.176H5.582a.177.177,0,0,0-.176.176v.176H5.24a.714.714,0,0,0-.74.676v3.878a.763.763,0,0,0,.738.734h7.05a.706.706,0,0,0,.672-.734V9.609A.657.657,0,0,0,12.289,8.933Zm-3.47,4.415a1.884,1.884,0,1,1,1.793-1.793A1.885,1.885,0,0,1,8.818,13.348Zm2.027-3.137a.286.286,0,1,1,.286-.286A.286.286,0,0,1,10.845,10.21Z" transform="translate(-4.5 -7.875)" fill="#fff"/>
        </g>
    </g>
</svg>
