<svg id="svg" version="1.1" xmlns="http://www.w3.org/2000/svg" xmlns:xlink="http://www.w3.org/1999/xlink" width="400" height="400" viewBox="0, 0, 400,400"><g id="svgg"><path id="path0" d="M66.800 1.800 C 66.800 2.790,66.946 3.600,67.125 3.600 C 67.304 3.600,67.698 4.230,68.000 5.000 C 68.302 5.770,68.696 6.400,68.875 6.400 C 69.054 6.400,69.200 6.670,69.200 7.000 C 69.200 7.330,69.380 7.600,69.600 7.600 C 69.820 7.600,70.000 7.870,70.000 8.200 C 70.000 8.530,70.180 8.800,70.400 8.800 C 70.620 8.800,70.800 9.078,70.800 9.417 C 70.800 9.756,71.160 10.420,71.600 10.892 C 72.040 11.364,72.400 11.987,72.400 12.275 C 72.400 12.564,72.580 12.800,72.800 12.800 C 73.020 12.800,73.200 13.160,73.200 13.600 C 73.200 14.040,73.380 14.400,73.600 14.400 C 73.820 14.400,74.000 14.745,74.000 15.167 C 74.000 15.588,74.143 15.993,74.319 16.067 C 74.609 16.188,76.411 19.304,78.561 23.400 C 79.022 24.280,79.613 25.226,79.874 25.502 C 80.134 25.779,80.462 26.364,80.601 26.802 C 80.740 27.241,81.022 27.600,81.227 27.600 C 81.432 27.600,81.600 27.960,81.600 28.400 C 81.600 28.840,81.780 29.200,82.000 29.200 C 82.220 29.200,82.400 29.478,82.400 29.817 C 82.400 30.156,82.760 30.820,83.200 31.292 C 83.640 31.764,84.000 32.387,84.000 32.675 C 84.000 32.964,84.180 33.200,84.400 33.200 C 84.620 33.200,84.800 33.560,84.800 34.000 C 84.800 34.440,84.980 34.800,85.200 34.800 C 85.420 34.800,85.600 35.036,85.600 35.325 C 85.600 35.613,85.960 36.236,86.400 36.708 C 86.840 37.180,87.200 37.844,87.200 38.183 C 87.200 38.522,87.336 38.800,87.502 38.800 C 87.669 38.800,88.060 39.385,88.372 40.100 C 88.684 40.815,89.268 41.691,89.670 42.047 C 90.071 42.403,90.400 42.988,90.400 43.347 C 90.400 43.706,90.580 44.000,90.800 44.000 C 91.020 44.000,91.200 44.345,91.200 44.767 C 91.200 45.188,91.339 45.593,91.509 45.667 C 91.680 45.740,92.519 47.150,93.375 48.800 C 94.231 50.450,95.082 51.860,95.266 51.933 C 95.450 52.007,95.600 52.412,95.600 52.833 C 95.600 53.255,95.736 53.600,95.902 53.600 C 96.069 53.600,96.464 54.185,96.780 54.900 C 97.097 55.615,97.680 56.549,98.078 56.975 C 98.475 57.402,98.800 57.987,98.800 58.275 C 98.800 58.564,98.980 58.800,99.200 58.800 C 99.420 58.800,99.600 59.160,99.600 59.600 C 99.600 60.040,99.780 60.400,100.000 60.400 C 100.220 60.400,100.400 60.636,100.400 60.925 C 100.400 61.213,100.760 61.836,101.200 62.308 C 101.640 62.780,102.000 63.444,102.000 63.783 C 102.000 64.122,102.180 64.400,102.400 64.400 C 102.620 64.400,102.800 64.760,102.800 65.200 C 102.800 65.640,102.980 66.000,103.200 66.000 C 103.420 66.000,103.600 66.270,103.600 66.600 C 103.600 66.930,103.780 67.200,104.000 67.200 C 104.220 67.200,104.400 67.470,104.400 67.800 C 104.400 68.130,104.580 68.400,104.800 68.400 C 105.020 68.400,105.200 68.760,105.200 69.200 C 105.200 69.640,105.380 70.000,105.600 70.000 C 105.820 70.000,106.000 70.236,106.000 70.525 C 106.000 70.813,106.360 71.436,106.800 71.908 C 107.240 72.380,107.600 73.044,107.600 73.383 C 107.600 73.722,107.746 74.000,107.925 74.000 C 108.104 74.000,108.501 74.639,108.808 75.419 C 109.114 76.200,109.597 77.032,109.882 77.268 C 110.167 77.505,110.400 77.959,110.400 78.278 C 110.400 78.596,110.672 79.129,111.004 79.461 C 111.336 79.793,111.505 80.230,111.380 80.432 C 111.255 80.635,111.322 80.800,111.528 80.800 C 111.734 80.800,112.127 81.340,112.400 82.000 C 112.673 82.660,113.055 83.200,113.249 83.200 C 113.442 83.200,113.600 83.560,113.600 84.000 C 113.600 84.440,113.780 84.800,114.000 84.800 C 114.220 84.800,114.400 85.036,114.400 85.325 C 114.400 85.613,114.760 86.236,115.200 86.708 C 115.640 87.180,116.000 87.844,116.000 88.183 C 116.000 88.522,116.136 88.800,116.302 88.800 C 116.469 88.800,116.860 89.385,117.172 90.100 C 117.484 90.815,118.068 91.691,118.470 92.047 C 118.871 92.403,119.200 92.988,119.200 93.347 C 119.200 93.706,119.380 94.000,119.600 94.000 C 119.820 94.000,120.000 94.360,120.000 94.800 C 120.000 95.240,120.180 95.600,120.400 95.600 C 120.620 95.600,120.800 95.920,120.800 96.312 C 120.800 96.703,121.160 97.283,121.600 97.600 C 122.040 97.917,122.400 98.497,122.400 98.888 C 122.400 99.280,122.580 99.600,122.800 99.600 C 123.020 99.600,123.200 99.960,123.200 100.400 C 123.200 100.840,123.380 101.200,123.600 101.200 C 123.820 101.200,124.000 101.470,124.000 101.800 C 124.000 102.130,124.180 102.400,124.400 102.400 C 124.620 102.400,124.800 102.670,124.800 103.000 C 124.800 103.330,124.991 103.600,125.224 103.600 C 125.457 103.600,125.552 103.754,125.436 103.941 C 125.320 104.129,125.759 105.126,126.413 106.155 C 127.066 107.185,127.600 108.187,127.600 108.381 C 127.600 108.575,127.735 108.793,127.900 108.867 C 128.065 108.940,128.633 109.855,129.163 110.900 C 129.692 111.945,130.277 112.800,130.463 112.800 C 130.648 112.800,130.800 113.160,130.800 113.600 C 130.800 114.040,130.980 114.400,131.200 114.400 C 131.420 114.400,131.600 114.760,131.600 115.200 C 131.600 115.640,131.780 116.000,132.000 116.000 C 132.220 116.000,132.400 116.236,132.400 116.525 C 132.400 116.813,132.760 117.436,133.200 117.908 C 133.640 118.380,134.000 119.029,134.000 119.350 C 134.000 119.671,134.135 119.993,134.300 120.067 C 134.676 120.234,135.975 122.364,136.271 123.300 C 136.393 123.685,136.652 124.000,136.847 124.000 C 137.041 124.000,137.200 124.270,137.200 124.600 C 137.200 124.930,137.380 125.200,137.600 125.200 C 137.820 125.200,138.000 125.520,138.000 125.912 C 138.000 126.303,138.360 126.883,138.800 127.200 C 139.240 127.517,139.600 128.097,139.600 128.488 C 139.600 128.880,139.780 129.200,140.000 129.200 C 140.220 129.200,140.400 129.560,140.400 130.000 C 140.400 130.440,140.580 130.800,140.800 130.800 C 141.020 130.800,141.200 131.145,141.200 131.567 C 141.200 131.988,141.346 132.393,141.524 132.467 C 141.804 132.582,142.502 133.836,144.548 137.897 C 144.797 138.390,145.317 138.795,145.705 138.797 C 146.413 138.800,147.925 140.915,150.282 145.200 C 150.947 146.410,152.439 149.020,153.597 151.000 C 154.755 152.980,156.057 155.230,156.489 156.000 C 156.922 156.770,157.438 157.571,157.638 157.780 C 157.837 157.989,158.000 158.484,158.000 158.880 C 158.000 159.560,158.785 159.600,172.000 159.600 C 180.774 159.600,186.000 159.455,186.000 159.212 C 186.000 158.999,185.663 158.234,185.251 157.512 C 184.450 156.109,169.969 131.010,168.801 129.000 C 167.707 127.118,154.202 103.740,152.452 100.700 C 152.040 99.985,148.688 94.180,145.002 87.800 C 136.947 73.858,137.005 73.958,136.000 72.200 C 134.526 69.621,133.730 68.243,128.604 59.400 C 125.798 54.560,122.959 49.610,122.294 48.400 C 121.629 47.190,120.950 46.020,120.785 45.800 C 120.620 45.580,120.106 44.725,119.643 43.900 C 117.946 40.879,117.313 39.782,110.598 28.200 C 105.473 19.361,104.676 17.984,103.200 15.400 C 102.760 14.630,102.040 13.370,101.600 12.600 C 101.160 11.830,100.462 10.615,100.049 9.900 C 99.636 9.185,98.181 6.665,96.816 4.300 L 94.335 -0.000 80.567 -0.000 L 66.800 0.000 66.800 1.800 M122.571 0.668 C 122.784 1.224,124.791 4.743,131.201 15.800 C 131.583 16.460,135.270 22.850,139.394 30.000 C 143.518 37.150,147.231 43.585,147.646 44.300 C 148.061 45.015,148.738 46.185,149.150 46.900 C 149.563 47.615,151.206 50.450,152.800 53.200 C 154.395 55.950,156.110 58.920,156.610 59.800 C 157.111 60.680,158.821 63.650,160.410 66.400 C 164.447 73.387,164.700 73.826,165.600 75.400 C 166.636 77.213,166.719 77.357,174.605 91.000 C 178.292 97.380,181.850 103.590,182.512 104.800 C 183.174 106.010,183.853 107.180,184.021 107.400 C 184.189 107.620,187.696 113.650,191.814 120.800 C 195.932 127.950,199.616 134.340,200.000 135.000 C 207.339 147.607,213.600 158.701,213.600 159.096 C 213.600 159.492,216.607 159.600,227.600 159.600 C 236.995 159.600,241.600 159.464,241.600 159.185 C 241.600 158.794,239.804 155.561,234.720 146.800 C 229.451 137.721,228.455 138.731,242.600 138.803 C 248.540 138.833,253.760 138.843,254.200 138.826 C 254.640 138.808,255.198 138.390,255.440 137.897 C 256.578 135.580,257.846 133.351,258.300 132.871 C 258.575 132.581,258.800 131.996,258.800 131.571 C 258.800 131.147,258.980 130.800,259.200 130.800 C 259.420 130.800,259.600 130.440,259.600 130.000 C 259.600 129.560,259.780 129.200,260.000 129.200 C 260.220 129.200,260.400 128.964,260.400 128.675 C 260.400 128.387,260.760 127.764,261.200 127.292 C 261.640 126.820,262.000 126.156,262.000 125.817 C 262.000 125.478,262.180 125.200,262.400 125.200 C 262.620 125.200,262.800 124.945,262.800 124.633 C 262.800 124.322,262.935 124.007,263.100 123.933 C 263.476 123.766,264.775 121.636,265.071 120.700 C 265.193 120.315,265.452 120.000,265.647 120.000 C 265.841 120.000,266.000 119.722,266.000 119.383 C 266.000 119.044,266.360 118.380,266.800 117.908 C 267.240 117.436,267.600 116.813,267.600 116.525 C 267.600 116.236,267.780 116.000,268.000 116.000 C 268.220 116.000,268.400 115.640,268.400 115.200 C 268.400 114.760,268.580 114.400,268.800 114.400 C 269.020 114.400,269.200 114.122,269.200 113.783 C 269.200 113.444,269.560 112.780,270.000 112.308 C 270.440 111.836,270.800 111.213,270.800 110.925 C 270.800 110.636,270.980 110.400,271.200 110.400 C 271.420 110.400,271.600 110.040,271.600 109.600 C 271.600 109.160,271.780 108.800,272.000 108.800 C 272.220 108.800,272.400 108.607,272.400 108.372 C 272.400 108.137,272.902 107.192,273.516 106.272 C 274.130 105.352,274.985 103.837,275.416 102.905 C 275.847 101.972,276.335 101.207,276.500 101.205 C 276.665 101.202,276.800 100.840,276.800 100.400 C 276.800 99.960,276.980 99.600,277.200 99.600 C 277.420 99.600,277.600 99.280,277.600 98.888 C 277.600 98.497,277.960 97.917,278.400 97.600 C 278.840 97.283,279.200 96.703,279.200 96.312 C 279.200 95.920,279.380 95.600,279.600 95.600 C 279.820 95.600,280.000 95.240,280.000 94.800 C 280.000 94.360,280.180 94.000,280.400 94.000 C 280.620 94.000,280.800 93.706,280.800 93.347 C 280.800 92.988,281.116 92.403,281.503 92.047 C 281.889 91.691,282.474 90.860,282.802 90.200 C 283.130 89.540,283.489 88.910,283.599 88.800 C 283.995 88.406,285.254 86.187,285.471 85.500 C 285.593 85.115,285.852 84.800,286.047 84.800 C 286.241 84.800,286.400 84.440,286.400 84.000 C 286.400 83.560,286.558 83.200,286.751 83.200 C 286.945 83.200,287.327 82.660,287.600 82.000 C 287.873 81.340,288.255 80.800,288.449 80.800 C 288.642 80.800,288.800 80.440,288.800 80.000 C 288.800 79.560,288.980 79.200,289.200 79.200 C 289.420 79.200,289.600 78.840,289.600 78.400 C 289.600 77.960,289.753 77.600,289.939 77.600 C 290.126 77.600,290.616 76.835,291.028 75.900 C 291.441 74.965,291.873 74.110,291.989 74.000 C 292.379 73.631,293.647 71.407,293.871 70.700 C 293.993 70.315,294.252 70.000,294.447 70.000 C 294.641 70.000,294.800 69.640,294.800 69.200 C 294.800 68.760,294.980 68.400,295.200 68.400 C 295.420 68.400,295.600 68.130,295.600 67.800 C 295.600 67.470,295.780 67.200,296.000 67.200 C 296.220 67.200,296.400 66.930,296.400 66.600 C 296.400 66.270,296.580 66.000,296.800 66.000 C 297.020 66.000,297.200 65.640,297.200 65.200 C 297.200 64.760,297.380 64.400,297.600 64.400 C 297.820 64.400,298.000 64.122,298.000 63.783 C 298.000 63.444,298.360 62.780,298.800 62.308 C 299.240 61.836,299.600 61.213,299.600 60.925 C 299.600 60.636,299.780 60.400,300.000 60.400 C 300.220 60.400,300.400 60.040,300.400 59.600 C 300.400 59.160,300.580 58.800,300.800 58.800 C 301.020 58.800,301.200 58.530,301.200 58.200 C 301.200 57.870,301.380 57.600,301.600 57.600 C 301.820 57.600,302.000 57.330,302.000 57.000 C 302.000 56.670,302.146 56.400,302.325 56.400 C 302.504 56.400,302.898 55.770,303.200 55.000 C 303.502 54.230,303.896 53.600,304.075 53.600 C 304.254 53.600,304.400 53.240,304.400 52.800 C 304.400 52.360,304.552 52.000,304.737 52.000 C 304.923 52.000,305.505 51.145,306.032 50.100 C 306.558 49.055,307.082 48.110,307.195 48.000 C 307.708 47.500,308.800 45.213,308.800 44.638 C 308.800 44.287,308.980 44.000,309.200 44.000 C 309.420 44.000,309.600 43.706,309.600 43.347 C 309.600 42.988,309.929 42.403,310.330 42.047 C 310.732 41.691,311.316 40.815,311.628 40.100 C 311.940 39.385,312.331 38.800,312.498 38.800 C 312.664 38.800,312.800 38.522,312.800 38.183 C 312.800 37.844,313.160 37.180,313.600 36.708 C 314.040 36.236,314.400 35.613,314.400 35.325 C 314.400 35.036,314.580 34.800,314.800 34.800 C 315.020 34.800,315.200 34.440,315.200 34.000 C 315.200 33.560,315.380 33.200,315.600 33.200 C 315.820 33.200,316.000 32.964,316.000 32.675 C 316.000 32.387,316.360 31.764,316.800 31.292 C 317.240 30.820,317.600 30.156,317.600 29.817 C 317.600 29.478,317.780 29.200,318.000 29.200 C 318.220 29.200,318.400 28.840,318.400 28.400 C 318.400 27.960,318.558 27.600,318.751 27.600 C 318.945 27.600,319.327 27.060,319.600 26.400 C 319.873 25.740,320.211 25.200,320.351 25.200 C 320.490 25.200,320.859 24.615,321.170 23.900 C 321.481 23.185,321.840 22.510,321.968 22.400 C 322.371 22.052,323.593 19.870,324.487 17.900 C 324.962 16.855,325.496 16.000,325.675 16.000 C 325.854 16.000,326.000 15.640,326.000 15.200 C 326.000 14.760,326.180 14.400,326.400 14.400 C 326.620 14.400,326.800 14.122,326.800 13.783 C 326.800 13.444,327.160 12.780,327.600 12.308 C 328.040 11.836,328.400 11.213,328.400 10.925 C 328.400 10.636,328.580 10.400,328.800 10.400 C 329.020 10.400,329.200 10.040,329.200 9.600 C 329.200 9.160,329.380 8.800,329.600 8.800 C 329.820 8.800,330.000 8.530,330.000 8.200 C 330.000 7.870,330.180 7.600,330.400 7.600 C 330.620 7.600,330.800 7.330,330.800 7.000 C 330.800 6.670,330.980 6.400,331.200 6.400 C 331.420 6.400,331.600 6.130,331.600 5.800 C 331.600 5.470,331.780 5.200,332.000 5.200 C 332.220 5.200,332.400 4.840,332.400 4.400 C 332.400 3.960,332.580 3.600,332.800 3.600 C 333.020 3.600,333.200 2.788,333.200 1.795 L 333.200 -0.010 319.143 0.095 C 307.140 0.185,305.038 0.288,304.750 0.800 C 304.565 1.130,303.178 3.560,301.668 6.200 C 300.158 8.840,298.470 11.810,297.918 12.800 C 295.752 16.681,295.081 17.838,294.439 18.800 C 294.072 19.350,293.508 20.340,293.186 21.000 C 292.865 21.660,292.511 22.290,292.401 22.400 C 292.204 22.596,291.932 23.060,290.320 25.955 C 289.877 26.750,289.373 27.580,289.200 27.800 C 288.863 28.228,287.811 30.065,285.880 33.600 C 285.219 34.810,284.345 36.278,283.939 36.862 C 283.533 37.446,283.200 38.016,283.200 38.129 C 283.200 38.242,282.390 39.704,281.400 41.378 C 280.410 43.053,279.600 44.520,279.600 44.639 C 279.600 44.758,279.099 45.608,278.488 46.528 C 277.876 47.448,277.111 48.740,276.788 49.400 C 276.465 50.060,276.111 50.690,276.001 50.800 C 275.890 50.910,275.575 51.405,275.300 51.900 C 275.025 52.395,274.575 53.205,274.300 53.700 C 274.025 54.195,273.710 54.690,273.600 54.800 C 273.490 54.910,273.021 55.720,272.557 56.600 C 272.093 57.480,270.763 59.820,269.601 61.800 C 265.288 69.147,261.600 75.718,261.600 76.054 C 261.600 76.244,261.441 76.400,261.247 76.400 C 261.052 76.400,260.790 76.715,260.664 77.100 C 260.538 77.485,259.952 78.610,259.361 79.600 C 258.770 80.590,257.952 81.985,257.543 82.700 C 255.658 85.997,255.143 86.900,254.353 88.300 C 253.887 89.125,253.167 90.278,252.753 90.862 C 252.339 91.446,252.000 92.007,252.000 92.110 C 252.000 92.212,250.806 94.345,249.346 96.848 C 245.529 103.393,245.169 104.025,244.238 105.800 C 243.777 106.680,243.310 107.490,243.200 107.600 C 243.090 107.710,242.758 108.230,242.462 108.755 C 240.307 112.582,239.679 113.672,234.600 122.400 C 232.231 126.470,229.912 130.520,229.447 131.400 C 228.058 134.024,227.817 134.126,226.920 132.470 C 226.482 131.662,225.735 130.325,225.262 129.500 C 224.788 128.675,224.040 127.370,223.600 126.600 C 223.160 125.830,222.460 124.615,222.045 123.900 C 215.264 112.218,214.392 110.569,214.788 110.165 C 215.339 109.603,222.800 96.381,222.800 95.966 C 222.800 95.765,222.935 95.599,223.100 95.597 C 223.265 95.595,223.598 95.190,223.840 94.697 C 224.669 93.010,226.200 90.200,226.400 90.000 C 226.587 89.813,227.122 88.902,228.162 87.000 C 228.403 86.560,228.690 86.110,228.800 86.000 C 228.910 85.890,229.242 85.370,229.538 84.845 C 231.412 81.516,232.456 79.691,236.200 73.200 C 237.913 70.230,239.649 67.215,240.057 66.500 C 241.854 63.355,242.446 62.320,243.144 61.100 C 243.553 60.385,244.453 58.847,245.144 57.682 C 245.835 56.518,246.400 55.393,246.400 55.182 C 246.400 54.972,246.559 54.800,246.753 54.800 C 246.948 54.800,247.210 54.485,247.336 54.100 C 247.462 53.715,247.995 52.680,248.521 51.800 C 251.373 47.031,254.000 42.325,254.000 41.986 C 254.000 41.774,254.159 41.600,254.353 41.600 C 254.548 41.600,254.810 41.285,254.936 40.900 C 255.062 40.515,255.648 39.390,256.239 38.400 C 256.830 37.410,257.622 36.060,258.000 35.400 C 258.378 34.740,259.170 33.390,259.761 32.400 C 260.352 31.410,260.938 30.285,261.064 29.900 C 261.190 29.515,261.452 29.200,261.647 29.200 C 261.841 29.200,262.000 29.034,262.000 28.832 C 262.000 28.513,262.792 27.089,266.801 20.200 C 267.185 19.540,268.532 17.200,269.795 15.000 C 271.058 12.800,272.458 10.370,272.907 9.600 C 273.356 8.830,274.100 7.480,274.562 6.600 C 275.023 5.720,275.490 4.910,275.600 4.800 C 275.710 4.690,276.042 4.170,276.338 3.645 C 276.633 3.120,277.215 2.085,277.631 1.345 L 278.386 0.000 263.826 0.000 C 248.498 0.000,248.000 0.039,248.000 1.243 C 248.000 1.659,247.820 2.000,247.600 2.000 C 247.380 2.000,247.200 2.360,247.200 2.800 C 247.200 3.240,247.042 3.600,246.849 3.600 C 246.655 3.600,246.273 4.140,246.000 4.800 C 245.727 5.460,245.345 6.000,245.151 6.000 C 244.958 6.000,244.800 6.360,244.800 6.800 C 244.800 7.240,244.620 7.600,244.400 7.600 C 244.180 7.600,244.000 7.784,244.000 8.008 C 244.000 8.232,243.550 9.129,243.000 10.000 C 242.450 10.871,242.000 11.858,242.000 12.192 C 242.000 12.526,241.820 12.800,241.600 12.800 C 241.380 12.800,241.200 13.036,241.200 13.325 C 241.200 13.613,240.840 14.236,240.400 14.708 C 239.960 15.180,239.600 15.844,239.600 16.183 C 239.600 16.522,239.420 16.800,239.200 16.800 C 238.980 16.800,238.800 17.078,238.800 17.417 C 238.800 17.756,238.440 18.420,238.000 18.892 C 237.560 19.364,237.200 19.987,237.200 20.275 C 237.200 20.564,237.020 20.800,236.800 20.800 C 236.580 20.800,236.400 21.160,236.400 21.600 C 236.400 22.040,236.220 22.400,236.000 22.400 C 235.780 22.400,235.600 22.720,235.600 23.112 C 235.600 23.503,235.240 24.083,234.800 24.400 C 234.360 24.717,234.000 25.297,234.000 25.688 C 234.000 26.080,233.820 26.400,233.600 26.400 C 233.380 26.400,233.200 26.670,233.200 27.000 C 233.200 27.330,233.020 27.600,232.800 27.600 C 232.580 27.600,232.400 27.878,232.400 28.217 C 232.400 28.556,232.040 29.220,231.600 29.692 C 231.160 30.164,230.800 30.787,230.800 31.075 C 230.800 31.364,230.620 31.600,230.400 31.600 C 230.180 31.600,230.000 31.960,230.000 32.400 C 230.000 32.840,229.820 33.200,229.600 33.200 C 229.380 33.200,229.200 33.478,229.200 33.817 C 229.200 34.156,228.840 34.820,228.400 35.292 C 227.960 35.764,227.600 36.387,227.600 36.675 C 227.600 36.964,227.420 37.200,227.200 37.200 C 226.980 37.200,226.800 37.560,226.800 38.000 C 226.800 38.440,226.632 38.800,226.427 38.800 C 226.047 38.800,225.377 40.354,225.521 40.900 C 225.564 41.065,225.420 41.200,225.200 41.200 C 224.980 41.200,224.800 41.470,224.800 41.800 C 224.800 42.130,224.620 42.400,224.400 42.400 C 224.180 42.400,224.000 42.760,224.000 43.200 C 224.000 43.640,223.820 44.000,223.600 44.000 C 223.380 44.000,223.200 44.270,223.200 44.600 C 223.200 44.930,223.054 45.200,222.875 45.200 C 222.696 45.200,222.302 45.830,222.000 46.600 C 221.698 47.370,221.304 48.000,221.125 48.000 C 220.946 48.000,220.800 48.320,220.800 48.712 C 220.800 49.103,220.440 49.683,220.000 50.000 C 219.560 50.317,219.200 50.897,219.200 51.288 C 219.200 51.680,219.020 52.000,218.800 52.000 C 218.580 52.000,218.400 52.360,218.400 52.800 C 218.400 53.240,218.255 53.600,218.079 53.600 C 217.902 53.600,217.317 54.497,216.779 55.594 C 216.240 56.690,215.665 57.590,215.500 57.594 C 215.335 57.597,215.200 57.793,215.200 58.028 C 215.200 58.263,214.660 59.241,214.000 60.200 C 213.340 61.159,212.800 62.137,212.800 62.372 C 212.800 62.607,212.620 62.800,212.400 62.800 C 212.180 62.800,212.000 63.061,212.000 63.380 C 212.000 63.699,211.486 64.734,210.858 65.680 C 210.230 66.626,209.385 68.165,208.981 69.100 C 208.577 70.035,208.101 70.800,207.923 70.800 C 207.745 70.800,207.600 71.160,207.600 71.600 C 207.600 72.040,207.420 72.400,207.200 72.400 C 206.980 72.400,206.800 72.760,206.800 73.200 C 206.800 73.640,206.642 74.000,206.449 74.000 C 206.255 74.000,205.873 74.540,205.600 75.200 C 205.327 75.860,204.945 76.400,204.751 76.400 C 204.558 76.400,204.400 76.670,204.400 77.000 C 204.400 77.330,204.220 77.600,204.000 77.600 C 203.780 77.600,203.600 77.878,203.600 78.217 C 203.600 78.556,203.240 79.220,202.800 79.692 C 202.360 80.164,202.000 80.787,202.000 81.075 C 202.000 81.364,201.820 81.600,201.600 81.600 C 201.380 81.600,201.200 81.960,201.200 82.400 C 201.200 82.840,201.020 83.200,200.800 83.200 C 200.580 83.200,200.400 83.560,200.400 84.000 C 200.400 84.440,200.220 84.800,200.000 84.800 C 199.780 84.800,199.600 84.440,199.600 84.000 C 199.600 83.560,199.420 83.200,199.200 83.200 C 198.980 83.200,198.800 82.840,198.800 82.400 C 198.800 81.960,198.620 81.600,198.400 81.600 C 198.180 81.600,198.000 81.364,198.000 81.075 C 198.000 80.787,197.675 80.202,197.278 79.775 C 196.880 79.349,196.297 78.415,195.980 77.700 C 195.664 76.985,195.290 76.400,195.151 76.400 C 195.011 76.400,194.673 75.860,194.400 75.200 C 194.127 74.540,193.745 74.000,193.551 74.000 C 193.358 74.000,193.200 73.640,193.200 73.200 C 193.200 72.760,193.020 72.400,192.800 72.400 C 192.580 72.400,192.400 72.055,192.400 71.633 C 192.400 71.212,192.257 70.807,192.082 70.733 C 191.908 70.660,191.061 69.205,190.201 67.500 C 189.341 65.795,188.494 64.400,188.319 64.400 C 188.143 64.400,188.000 64.040,188.000 63.600 C 188.000 63.160,187.820 62.800,187.600 62.800 C 187.380 62.800,187.200 62.545,187.200 62.233 C 187.200 61.922,187.065 61.607,186.900 61.533 C 186.524 61.366,185.225 59.236,184.929 58.300 C 184.807 57.915,184.548 57.600,184.353 57.600 C 184.159 57.600,184.000 57.240,184.000 56.800 C 184.000 56.360,183.842 56.000,183.649 56.000 C 183.455 56.000,183.073 55.460,182.800 54.800 C 182.527 54.140,182.145 53.600,181.951 53.600 C 181.758 53.600,181.600 53.240,181.600 52.800 C 181.600 52.360,181.420 52.000,181.200 52.000 C 180.980 52.000,180.800 51.722,180.800 51.383 C 180.800 51.044,180.440 50.380,180.000 49.908 C 179.560 49.436,179.200 48.813,179.200 48.525 C 179.200 48.236,179.020 48.000,178.800 48.000 C 178.580 48.000,178.400 47.640,178.400 47.200 C 178.400 46.760,178.220 46.400,178.000 46.400 C 177.780 46.400,177.600 46.164,177.600 45.875 C 177.600 45.587,177.240 44.964,176.800 44.492 C 176.360 44.020,176.000 43.345,176.000 42.993 C 176.000 42.641,175.820 42.464,175.600 42.600 C 175.380 42.736,175.200 42.573,175.200 42.237 C 175.200 41.407,173.930 38.800,173.526 38.800 C 173.347 38.800,173.200 38.440,173.200 38.000 C 173.200 37.560,173.020 37.200,172.800 37.200 C 172.580 37.200,172.400 36.964,172.400 36.675 C 172.400 36.387,172.040 35.764,171.600 35.292 C 171.160 34.820,170.800 34.156,170.800 33.817 C 170.800 33.478,170.620 33.200,170.400 33.200 C 170.180 33.200,170.000 32.840,170.000 32.400 C 170.000 31.960,169.820 31.600,169.600 31.600 C 169.380 31.600,169.200 31.364,169.200 31.075 C 169.200 30.787,168.840 30.164,168.400 29.692 C 167.960 29.220,167.600 28.556,167.600 28.217 C 167.600 27.878,167.464 27.600,167.298 27.600 C 167.131 27.600,166.740 27.015,166.428 26.300 C 166.116 25.585,165.532 24.709,165.130 24.353 C 164.729 23.997,164.400 23.412,164.400 23.053 C 164.400 22.694,164.220 22.400,164.000 22.400 C 163.780 22.400,163.600 22.040,163.600 21.600 C 163.600 21.160,163.420 20.800,163.200 20.800 C 162.980 20.800,162.800 20.564,162.800 20.275 C 162.800 19.987,162.440 19.364,162.000 18.892 C 161.560 18.420,161.200 17.756,161.200 17.417 C 161.200 17.078,161.020 16.800,160.800 16.800 C 160.580 16.800,160.400 16.455,160.400 16.033 C 160.400 15.612,160.239 15.207,160.043 15.133 C 159.728 15.015,157.388 10.952,156.226 8.503 C 155.992 8.010,155.665 7.605,155.500 7.603 C 155.335 7.601,155.200 7.240,155.200 6.800 C 155.200 6.360,155.020 6.000,154.800 6.000 C 154.580 6.000,154.400 5.764,154.400 5.475 C 154.400 5.187,154.040 4.564,153.600 4.092 C 153.160 3.620,152.800 2.956,152.800 2.617 C 152.800 2.278,152.620 2.000,152.400 2.000 C 152.180 2.000,152.000 1.659,152.000 1.243 C 152.000 0.041,151.494 0.000,136.524 0.000 C 123.416 0.000,122.334 0.052,122.571 0.668 " stroke="none" fill="#7dcaf9" fill-rule="evenodd"></path><path id="path1" d="M194.800 208.392 C 193.590 208.573,191.306 208.739,189.724 208.760 C 188.142 208.782,186.736 208.980,186.600 209.200 C 186.464 209.420,185.564 209.600,184.600 209.600 C 183.636 209.600,182.736 209.780,182.600 210.000 C 182.464 210.220,181.654 210.400,180.800 210.400 C 179.946 210.400,179.136 210.580,179.000 210.800 C 178.864 211.020,178.133 211.200,177.376 211.200 C 176.619 211.200,176.000 211.380,176.000 211.600 C 176.000 211.820,175.460 212.000,174.800 212.000 C 174.140 212.000,173.600 212.180,173.600 212.400 C 173.600 212.620,173.060 212.800,172.400 212.800 C 171.740 212.800,171.200 212.980,171.200 213.200 C 171.200 213.420,170.928 213.600,170.595 213.600 C 170.262 213.600,169.677 213.759,169.295 213.953 C 168.913 214.148,168.150 214.482,167.600 214.697 C 167.050 214.911,165.818 215.472,164.862 215.943 C 163.906 216.414,162.886 216.800,162.596 216.800 C 162.305 216.800,162.007 216.935,161.933 217.100 C 161.860 217.265,160.663 217.997,159.274 218.726 C 156.745 220.053,149.977 224.288,149.600 224.778 C 149.490 224.921,148.783 225.470,148.029 225.997 C 144.273 228.623,136.358 236.509,133.106 240.865 C 132.504 241.671,131.784 242.571,131.506 242.865 C 131.228 243.159,130.745 243.895,130.432 244.500 C 130.120 245.105,129.715 245.600,129.532 245.600 C 129.350 245.600,129.200 245.870,129.200 246.200 C 129.200 246.530,129.020 246.800,128.800 246.800 C 128.580 246.800,128.400 247.070,128.400 247.400 C 128.400 247.730,128.241 248.000,128.047 248.000 C 127.852 248.000,127.593 248.315,127.471 248.700 C 127.249 249.401,125.983 251.624,125.592 252.000 C 125.129 252.445,121.200 260.869,121.200 261.418 C 121.200 261.561,120.945 262.246,120.633 262.940 C 119.984 264.382,118.732 268.158,118.026 270.800 C 117.762 271.790,117.378 273.153,117.173 273.828 C 116.968 274.504,116.800 275.593,116.800 276.248 C 116.800 276.904,116.636 277.611,116.435 277.820 C 115.542 278.750,114.751 302.911,115.587 303.747 C 115.814 303.974,116.000 305.168,116.000 306.400 C 116.000 307.632,116.162 308.811,116.359 309.020 C 116.556 309.229,116.820 310.120,116.944 311.000 C 117.422 314.389,117.701 315.615,118.044 315.827 C 118.240 315.948,118.400 316.566,118.400 317.200 C 118.400 317.834,118.580 318.464,118.800 318.600 C 119.020 318.736,119.200 319.276,119.200 319.800 C 119.200 320.324,119.380 320.864,119.600 321.000 C 119.820 321.136,120.000 321.563,120.000 321.948 C 120.000 322.334,120.360 323.395,120.800 324.306 C 121.240 325.216,121.600 326.229,121.600 326.557 C 121.600 326.885,121.760 327.252,121.956 327.373 C 122.151 327.494,122.424 328.040,122.561 328.588 C 122.699 329.136,123.349 330.495,124.006 331.609 C 124.663 332.724,125.200 333.897,125.200 334.218 C 125.200 334.538,125.380 334.800,125.600 334.800 C 125.820 334.800,126.000 335.070,126.000 335.400 C 126.000 335.730,126.136 336.000,126.302 336.000 C 126.469 336.000,126.864 336.585,127.180 337.300 C 127.497 338.015,128.080 338.949,128.478 339.375 C 128.875 339.802,129.200 340.387,129.200 340.675 C 129.200 340.964,129.350 341.200,129.532 341.200 C 129.715 341.200,130.120 341.689,130.432 342.288 C 130.745 342.886,131.394 343.831,131.875 344.388 C 132.356 344.944,133.973 346.840,135.467 348.600 C 140.755 354.829,147.641 361.122,152.999 364.625 C 158.168 368.003,168.229 373.200,169.601 373.200 C 169.826 373.200,170.323 373.374,170.705 373.587 C 171.455 374.006,174.543 375.063,176.800 375.674 C 180.767 376.748,182.828 377.177,188.400 378.086 C 192.314 378.725,207.686 378.725,211.600 378.086 C 217.283 377.159,219.709 376.650,223.200 375.654 C 223.970 375.434,225.050 375.137,225.600 374.994 C 226.658 374.718,228.142 374.139,229.295 373.553 C 229.677 373.359,230.174 373.200,230.399 373.200 C 231.361 373.200,238.960 369.548,243.200 367.048 C 246.523 365.089,251.366 361.858,252.237 361.020 C 252.477 360.789,253.276 360.150,254.013 359.600 C 263.787 352.305,274.299 337.949,279.496 324.800 C 281.765 319.058,282.673 315.856,284.035 308.800 C 286.807 294.437,285.425 277.681,280.340 264.000 C 279.001 260.399,278.948 260.270,278.057 258.462 C 277.586 257.506,277.200 256.486,277.200 256.196 C 277.200 255.905,277.065 255.607,276.900 255.533 C 276.735 255.460,276.156 254.500,275.613 253.400 C 275.070 252.300,273.765 250.103,272.713 248.518 C 271.661 246.933,270.800 245.540,270.800 245.423 C 270.800 245.305,270.540 244.892,270.222 244.505 C 269.905 244.117,268.791 242.630,267.748 241.200 C 266.705 239.770,263.319 236.080,260.225 233.000 C 254.567 227.369,254.164 227.005,251.600 225.207 C 250.830 224.668,249.970 224.003,249.689 223.730 C 247.980 222.073,236.351 215.749,231.700 213.949 C 231.205 213.757,230.395 213.432,229.900 213.226 C 229.405 213.021,228.280 212.639,227.400 212.377 C 226.520 212.116,225.487 211.744,225.105 211.551 C 224.723 211.358,223.699 211.200,222.829 211.200 C 221.959 211.200,221.136 211.020,221.000 210.800 C 220.864 210.580,220.043 210.400,219.176 210.400 C 218.309 210.400,217.600 210.220,217.600 210.000 C 217.600 209.780,216.610 209.600,215.400 209.600 C 214.190 209.600,213.200 209.446,213.200 209.257 C 213.200 208.618,198.057 207.906,194.800 208.392 M202.464 237.672 C 203.089 238.372,203.600 239.137,203.600 239.372 C 203.599 239.834,205.774 246.863,207.645 252.447 C 208.280 254.344,208.800 256.279,208.800 256.747 C 208.800 257.216,208.980 257.600,209.200 257.600 C 209.420 257.600,209.600 258.140,209.600 258.800 C 209.600 259.460,209.780 260.000,210.000 260.000 C 210.220 260.000,210.400 260.540,210.400 261.200 C 210.400 261.860,210.580 262.400,210.800 262.400 C 211.020 262.400,211.200 262.839,211.200 263.376 C 211.200 263.913,211.380 264.464,211.600 264.600 C 211.820 264.736,212.000 265.377,212.000 266.024 C 212.000 266.671,212.180 267.200,212.400 267.200 C 212.620 267.200,212.800 267.650,212.800 268.200 C 212.800 268.750,212.936 269.200,213.102 269.200 C 213.269 269.200,213.631 269.711,213.907 270.335 C 214.183 270.959,214.902 271.724,215.505 272.034 C 216.107 272.345,216.728 272.779,216.885 272.999 C 217.064 273.251,223.774 273.474,234.968 273.600 C 255.009 273.825,253.960 273.643,253.987 276.904 C 254.001 278.534,253.029 279.807,250.400 281.605 C 249.630 282.131,248.910 282.669,248.800 282.800 C 248.690 282.931,247.970 283.474,247.200 284.006 C 246.430 284.538,245.562 285.205,245.271 285.487 C 244.981 285.769,244.589 286.000,244.400 286.000 C 244.211 286.000,243.819 286.238,243.528 286.529 C 243.236 286.821,241.739 287.934,240.199 289.004 C 238.660 290.074,237.340 291.096,237.267 291.275 C 237.193 291.454,236.893 291.600,236.600 291.600 C 236.307 291.600,236.007 291.745,235.933 291.923 C 235.860 292.101,234.900 292.854,233.800 293.597 C 232.700 294.340,231.710 295.058,231.600 295.193 C 231.490 295.328,230.770 295.866,230.000 296.390 C 227.359 298.183,225.322 300.677,225.036 302.465 C 224.740 304.318,225.101 307.491,225.646 307.829 C 225.841 307.949,226.000 308.476,226.000 309.000 C 226.000 309.524,226.180 310.064,226.400 310.200 C 226.620 310.336,226.800 310.876,226.800 311.400 C 226.800 311.924,226.980 312.464,227.200 312.600 C 227.420 312.736,227.600 313.366,227.600 314.000 C 227.600 314.634,227.780 315.264,228.000 315.400 C 228.220 315.536,228.400 316.087,228.400 316.624 C 228.400 317.161,228.580 317.600,228.800 317.600 C 229.020 317.600,229.200 318.129,229.200 318.776 C 229.200 319.423,229.380 320.064,229.600 320.200 C 229.820 320.336,230.000 320.876,230.000 321.400 C 230.000 321.924,230.180 322.464,230.400 322.600 C 230.620 322.736,230.800 323.276,230.800 323.800 C 230.800 324.324,230.980 324.864,231.200 325.000 C 231.420 325.136,231.600 325.676,231.600 326.200 C 231.600 326.724,231.780 327.264,232.000 327.400 C 232.220 327.536,232.400 327.999,232.400 328.429 C 232.400 328.859,232.559 329.523,232.753 329.905 C 232.947 330.287,233.283 331.320,233.499 332.200 C 233.716 333.080,234.133 334.653,234.428 335.695 C 235.375 339.048,231.816 341.551,229.357 339.261 C 228.899 338.834,227.912 338.171,227.162 337.787 C 226.413 337.403,225.710 336.970,225.600 336.825 C 225.490 336.680,224.770 336.129,224.000 335.600 C 223.230 335.071,222.510 334.540,222.400 334.419 C 222.290 334.299,221.030 333.397,219.600 332.415 C 218.170 331.433,216.768 330.404,216.485 330.129 C 216.202 329.853,215.437 329.313,214.785 328.928 C 214.133 328.543,213.600 328.086,213.600 327.914 C 213.600 327.741,213.370 327.600,213.088 327.600 C 212.807 327.600,212.317 327.240,212.000 326.800 C 211.683 326.360,211.227 326.000,210.987 326.000 C 210.747 326.000,210.202 325.683,209.775 325.295 C 203.484 319.576,198.117 318.692,193.797 322.662 C 193.356 323.068,191.826 324.203,190.397 325.185 C 188.969 326.167,187.568 327.196,187.285 327.471 C 187.002 327.747,186.237 328.287,185.585 328.672 C 184.933 329.057,184.400 329.514,184.400 329.686 C 184.400 329.859,184.130 330.000,183.800 330.000 C 183.470 330.000,183.200 330.141,183.200 330.314 C 183.200 330.486,182.667 330.943,182.015 331.328 C 181.363 331.713,180.598 332.253,180.315 332.527 C 180.032 332.802,179.170 333.462,178.400 333.994 C 177.630 334.526,176.910 335.078,176.800 335.221 C 176.690 335.364,176.161 335.712,175.625 335.994 C 175.089 336.277,174.459 336.667,174.225 336.860 C 166.539 343.220,162.509 339.203,167.246 329.905 C 167.441 329.523,167.600 328.859,167.600 328.429 C 167.600 327.999,167.780 327.536,168.000 327.400 C 168.220 327.264,168.400 326.724,168.400 326.200 C 168.400 325.676,168.580 325.136,168.800 325.000 C 169.020 324.864,169.200 324.324,169.200 323.800 C 169.200 323.276,169.380 322.736,169.600 322.600 C 169.820 322.464,170.000 321.924,170.000 321.400 C 170.000 320.876,170.180 320.336,170.400 320.200 C 170.620 320.064,170.800 319.524,170.800 319.000 C 170.800 318.476,170.980 317.936,171.200 317.800 C 171.420 317.664,171.600 317.124,171.600 316.600 C 171.600 316.076,171.780 315.536,172.000 315.400 C 172.220 315.264,172.400 314.724,172.400 314.200 C 172.400 313.676,172.580 313.136,172.800 313.000 C 173.020 312.864,173.200 312.324,173.200 311.800 C 173.200 311.276,173.380 310.736,173.600 310.600 C 173.820 310.464,174.000 309.924,174.000 309.400 C 174.000 308.876,174.180 308.336,174.400 308.200 C 174.620 308.064,174.800 307.333,174.800 306.576 C 174.800 305.819,174.980 305.200,175.200 305.200 C 175.420 305.200,175.600 304.761,175.600 304.224 C 175.600 303.687,175.420 303.136,175.200 303.000 C 174.980 302.864,174.800 302.323,174.800 301.797 C 174.800 300.753,172.331 297.966,170.000 296.379 C 169.230 295.855,168.368 295.202,168.085 294.927 C 167.802 294.653,167.037 294.113,166.385 293.728 C 165.733 293.343,165.200 292.886,165.200 292.714 C 165.200 292.541,165.022 292.400,164.805 292.400 C 164.587 292.400,164.092 292.138,163.705 291.817 C 163.032 291.260,158.628 288.065,156.791 286.800 C 155.627 285.999,149.296 281.377,147.854 280.275 C 147.223 279.794,146.532 279.290,146.318 279.155 C 146.104 279.020,145.917 278.090,145.902 277.089 C 145.850 273.652,144.889 273.828,164.971 273.600 L 182.600 273.400 184.031 272.431 C 185.541 271.409,187.200 269.209,187.200 268.229 C 187.200 267.909,187.380 267.536,187.600 267.400 C 187.820 267.264,188.000 266.634,188.000 266.000 C 188.000 265.366,188.180 264.736,188.400 264.600 C 188.620 264.464,188.800 263.913,188.800 263.376 C 188.800 262.839,188.980 262.400,189.200 262.400 C 189.420 262.400,189.600 261.860,189.600 261.200 C 189.600 260.540,189.780 260.000,190.000 260.000 C 190.220 260.000,190.400 259.460,190.400 258.800 C 190.400 258.140,190.580 257.600,190.800 257.600 C 191.020 257.600,191.200 257.060,191.200 256.400 C 191.200 255.740,191.380 255.200,191.600 255.200 C 191.820 255.200,192.000 254.671,192.000 254.024 C 192.000 253.377,192.180 252.736,192.400 252.600 C 192.620 252.464,192.800 252.001,192.800 251.571 C 192.800 251.141,192.963 250.477,193.163 250.095 C 193.362 249.713,194.188 247.240,194.998 244.600 C 197.322 237.027,197.664 236.464,199.964 236.424 C 201.010 236.406,201.594 236.697,202.464 237.672 " stroke="none" fill="#e4a129" fill-rule="evenodd"></path><path id="path2" d="M143.800 139.200 C 143.664 139.420,143.243 139.600,142.865 139.600 C 142.486 139.600,141.917 139.960,141.600 140.400 C 141.283 140.840,140.807 141.200,140.543 141.200 C 139.934 141.200,137.200 144.367,137.200 145.072 C 137.200 145.362,137.020 145.600,136.800 145.600 C 136.580 145.600,136.400 146.039,136.400 146.576 C 136.400 147.113,136.220 147.664,136.000 147.800 C 135.739 147.961,135.600 157.873,135.600 176.229 C 135.600 191.745,135.441 204.723,135.247 205.105 C 135.052 205.487,134.648 206.340,134.348 207.000 C 133.810 208.182,131.678 210.402,128.664 212.918 C 126.036 215.112,119.200 222.112,119.200 222.608 C 119.200 222.728,118.615 223.427,117.900 224.160 C 116.547 225.549,116.306 225.835,114.004 228.801 C 112.049 231.319,112.196 231.112,110.204 234.153 C 109.212 235.667,108.400 237.152,108.400 237.453 C 108.400 237.754,108.220 238.000,108.000 238.000 C 107.780 238.000,107.600 238.320,107.600 238.712 C 107.600 239.103,107.240 239.683,106.800 240.000 C 106.360 240.317,106.000 240.897,106.000 241.288 C 106.000 241.680,105.820 242.000,105.600 242.000 C 105.380 242.000,105.200 242.345,105.200 242.767 C 105.200 243.188,105.064 243.593,104.898 243.667 C 104.732 243.740,103.993 245.060,103.256 246.600 C 102.519 248.140,101.755 249.713,101.558 250.095 C 101.361 250.477,101.200 251.062,101.200 251.395 C 101.200 251.728,101.020 252.000,100.800 252.000 C 100.580 252.000,100.400 252.349,100.400 252.776 C 100.400 253.203,100.220 253.664,100.000 253.800 C 99.780 253.936,99.600 254.487,99.600 255.024 C 99.600 255.561,99.420 256.000,99.200 256.000 C 98.980 256.000,98.800 256.540,98.800 257.200 C 98.800 257.860,98.620 258.400,98.400 258.400 C 98.180 258.400,98.000 258.839,98.000 259.376 C 98.000 259.913,97.820 260.464,97.600 260.600 C 97.380 260.736,97.200 261.377,97.200 262.024 C 97.200 262.671,97.020 263.200,96.800 263.200 C 96.580 263.200,96.400 263.830,96.400 264.600 C 96.400 265.370,96.238 266.000,96.040 266.000 C 95.842 266.000,95.586 266.765,95.469 267.700 C 95.353 268.635,95.055 270.300,94.808 271.400 C 92.468 281.792,91.889 300.139,93.621 309.000 C 93.836 310.100,94.071 311.450,94.144 312.000 C 94.217 312.550,94.382 313.270,94.511 313.600 C 94.640 313.930,94.839 314.830,94.954 315.600 C 95.366 318.370,95.660 319.814,95.972 320.600 C 96.678 322.380,97.200 324.305,97.200 325.128 C 97.200 325.608,97.380 326.000,97.600 326.000 C 97.820 326.000,98.000 326.540,98.000 327.200 C 98.000 327.860,98.180 328.400,98.400 328.400 C 98.620 328.400,98.800 328.762,98.800 329.205 C 98.800 329.648,98.980 330.368,99.200 330.805 C 99.420 331.242,99.780 331.958,100.000 332.395 C 100.220 332.832,100.400 333.552,100.400 333.995 C 100.400 334.438,100.580 334.800,100.800 334.800 C 101.020 334.800,101.200 335.160,101.200 335.600 C 101.200 336.040,101.380 336.400,101.600 336.400 C 101.820 336.400,102.000 336.749,102.000 337.176 C 102.000 337.603,102.180 338.064,102.400 338.200 C 102.620 338.336,102.800 338.797,102.800 339.224 C 102.800 339.651,102.980 340.000,103.200 340.000 C 103.420 340.000,103.600 340.360,103.600 340.800 C 103.600 341.240,103.780 341.600,104.000 341.600 C 104.220 341.600,104.400 341.960,104.400 342.400 C 104.400 342.840,104.580 343.200,104.800 343.200 C 105.020 343.200,105.200 343.436,105.200 343.725 C 105.200 344.013,105.560 344.636,106.000 345.108 C 106.440 345.580,106.800 346.244,106.800 346.583 C 106.800 346.922,106.980 347.200,107.200 347.200 C 107.420 347.200,107.600 347.560,107.600 348.000 C 107.600 348.440,107.750 348.800,107.932 348.800 C 108.115 348.800,108.515 349.295,108.821 349.900 C 109.590 351.424,114.423 358.467,115.201 359.200 C 115.551 359.530,116.278 360.430,116.815 361.200 C 117.352 361.970,118.874 363.713,120.196 365.073 C 121.518 366.434,123.243 368.234,124.030 369.073 C 126.579 371.796,131.168 376.000,131.589 376.000 C 131.815 376.000,132.000 376.180,132.000 376.400 C 132.000 376.620,132.198 376.800,132.440 376.800 C 132.681 376.800,133.383 377.340,134.000 378.000 C 134.617 378.660,135.274 379.200,135.460 379.201 C 135.647 379.201,136.430 379.741,137.200 380.400 C 137.970 381.059,138.785 381.599,139.012 381.599 C 139.238 381.600,139.683 381.960,140.000 382.400 C 140.317 382.840,140.831 383.200,141.141 383.200 C 141.452 383.200,141.997 383.516,142.353 383.903 C 142.709 384.289,143.540 384.869,144.200 385.191 C 144.860 385.512,146.120 386.242,147.000 386.812 C 149.314 388.312,156.130 391.600,156.924 391.600 C 157.296 391.600,157.600 391.780,157.600 392.000 C 157.600 392.220,157.962 392.400,158.405 392.400 C 158.848 392.400,159.523 392.559,159.905 392.753 C 160.287 392.948,161.140 393.329,161.800 393.600 C 162.460 393.871,163.313 394.252,163.695 394.447 C 164.077 394.641,164.752 394.800,165.195 394.800 C 165.638 394.800,166.000 394.980,166.000 395.200 C 166.000 395.420,166.540 395.600,167.200 395.600 C 167.860 395.600,168.400 395.780,168.400 396.000 C 168.400 396.220,169.019 396.400,169.776 396.400 C 170.533 396.400,171.264 396.580,171.400 396.800 C 171.536 397.020,172.166 397.200,172.800 397.200 C 173.434 397.200,174.064 397.380,174.200 397.600 C 174.336 397.820,175.146 398.000,176.000 398.000 C 176.854 398.000,177.664 398.180,177.800 398.400 C 177.936 398.620,178.922 398.800,179.990 398.800 C 181.189 398.800,181.997 398.991,182.100 399.300 C 182.330 399.990,217.193 400.031,218.039 399.343 C 218.347 399.092,219.455 398.777,220.500 398.643 C 225.373 398.020,226.000 397.896,226.000 397.560 C 226.000 397.362,226.630 397.200,227.400 397.200 C 228.170 397.200,228.800 397.020,228.800 396.800 C 228.800 396.580,229.430 396.400,230.200 396.400 C 230.970 396.400,231.600 396.220,231.600 396.000 C 231.600 395.780,232.140 395.600,232.800 395.600 C 233.460 395.600,234.000 395.420,234.000 395.200 C 234.000 394.980,234.540 394.800,235.200 394.800 C 235.860 394.800,236.400 394.620,236.400 394.400 C 236.400 394.180,236.850 394.000,237.400 394.000 C 237.950 394.000,238.400 393.820,238.400 393.600 C 238.400 393.380,238.749 393.200,239.176 393.200 C 239.603 393.200,240.064 393.020,240.200 392.800 C 240.336 392.580,240.887 392.400,241.424 392.400 C 241.961 392.400,242.400 392.236,242.400 392.035 C 242.400 391.834,243.120 391.549,244.000 391.400 C 244.880 391.251,245.601 391.011,245.603 390.865 C 245.607 390.541,247.573 389.600,248.246 389.600 C 248.514 389.600,248.793 389.465,248.867 389.300 C 248.940 389.135,249.900 388.557,251.000 388.016 C 252.100 387.474,253.752 386.529,254.672 385.916 C 255.592 385.302,256.537 384.800,256.772 384.800 C 257.007 384.800,257.200 384.620,257.200 384.400 C 257.200 384.180,257.470 384.000,257.800 384.000 C 258.130 384.000,258.400 383.820,258.400 383.600 C 258.400 383.380,258.670 383.200,259.000 383.200 C 259.330 383.200,259.600 383.050,259.600 382.868 C 259.600 382.685,260.095 382.281,260.700 381.970 C 261.305 381.660,262.091 381.089,262.447 380.703 C 262.803 380.316,263.271 380.000,263.488 380.000 C 263.704 380.000,264.446 379.460,265.137 378.800 C 265.828 378.140,266.574 377.600,266.796 377.600 C 267.018 377.600,267.200 377.420,267.200 377.200 C 267.200 376.980,267.377 376.800,267.593 376.800 C 268.040 376.800,270.854 374.316,275.100 370.172 C 276.695 368.615,278.000 367.413,278.000 367.500 C 278.000 367.586,278.270 367.387,278.600 367.057 C 278.930 366.727,279.200 366.264,279.200 366.029 C 279.200 365.793,279.380 365.600,279.600 365.600 C 279.820 365.600,280.000 365.408,280.000 365.174 C 280.000 364.940,280.891 363.880,281.979 362.820 C 283.068 361.760,283.882 360.815,283.787 360.721 C 283.693 360.627,284.243 359.885,285.008 359.074 C 285.774 358.262,286.400 357.498,286.400 357.376 C 286.400 357.068,288.931 353.831,289.300 353.667 C 289.465 353.593,289.600 353.292,289.600 352.997 C 289.600 352.703,290.050 351.927,290.600 351.273 C 291.150 350.619,291.600 349.795,291.600 349.442 C 291.600 349.089,291.780 348.800,292.000 348.800 C 292.220 348.800,292.400 348.440,292.400 348.000 C 292.400 347.560,292.580 347.200,292.800 347.200 C 293.020 347.200,293.200 346.930,293.200 346.600 C 293.200 346.270,293.380 346.000,293.600 346.000 C 293.820 346.000,294.000 345.730,294.000 345.400 C 294.000 345.070,294.180 344.800,294.400 344.800 C 294.620 344.800,294.800 344.440,294.800 344.000 C 294.800 343.560,294.980 343.200,295.200 343.200 C 295.420 343.200,295.600 342.840,295.600 342.400 C 295.600 341.960,295.780 341.600,296.000 341.600 C 296.220 341.600,296.400 341.240,296.400 340.800 C 296.400 340.360,296.580 340.000,296.800 340.000 C 297.020 340.000,297.200 339.640,297.200 339.200 C 297.200 338.760,297.380 338.400,297.600 338.400 C 297.820 338.400,298.000 337.950,298.000 337.400 C 298.000 336.850,298.180 336.400,298.400 336.400 C 298.620 336.400,298.800 336.040,298.800 335.600 C 298.800 335.160,298.980 334.800,299.200 334.800 C 299.420 334.800,299.600 334.451,299.600 334.024 C 299.600 333.597,299.780 333.136,300.000 333.000 C 300.220 332.864,300.400 332.313,300.400 331.776 C 300.400 331.239,300.580 330.800,300.800 330.800 C 301.020 330.800,301.200 330.271,301.200 329.624 C 301.200 328.977,301.380 328.336,301.600 328.200 C 301.820 328.064,302.000 327.513,302.000 326.976 C 302.000 326.439,302.180 326.000,302.400 326.000 C 302.620 326.000,302.800 325.548,302.800 324.995 C 302.800 324.442,302.958 323.677,303.151 323.295 C 303.768 322.073,304.400 319.774,304.400 318.752 C 304.400 318.206,304.562 317.589,304.759 317.380 C 304.956 317.171,305.219 316.280,305.343 315.400 C 305.467 314.520,305.758 312.720,305.989 311.400 C 307.351 303.630,307.746 289.526,306.823 281.600 C 306.579 279.510,306.276 276.810,306.148 275.600 C 306.021 274.390,305.766 273.306,305.581 273.191 C 305.397 273.076,305.202 272.120,305.147 271.067 C 305.093 270.015,304.902 269.063,304.724 268.953 C 304.546 268.843,304.400 268.234,304.400 267.600 C 304.400 266.966,304.220 266.336,304.000 266.200 C 303.780 266.064,303.600 265.333,303.600 264.576 C 303.600 263.819,303.420 263.200,303.200 263.200 C 302.980 263.200,302.800 262.671,302.800 262.024 C 302.800 261.377,302.620 260.736,302.400 260.600 C 302.180 260.464,302.000 259.924,302.000 259.400 C 302.000 258.876,301.820 258.336,301.600 258.200 C 301.380 258.064,301.200 257.513,301.200 256.976 C 301.200 256.439,301.020 256.000,300.800 256.000 C 300.580 256.000,300.400 255.561,300.400 255.024 C 300.400 254.487,300.220 253.936,300.000 253.800 C 299.780 253.664,299.600 253.203,299.600 252.776 C 299.600 252.349,299.420 252.000,299.200 252.000 C 298.980 252.000,298.800 251.550,298.800 251.000 C 298.800 250.450,298.620 250.000,298.400 250.000 C 298.180 250.000,298.000 249.755,298.000 249.456 C 298.000 248.799,295.524 243.855,295.100 243.667 C 294.935 243.593,294.800 243.188,294.800 242.767 C 294.800 242.345,294.620 242.000,294.400 242.000 C 294.180 242.000,294.000 241.680,294.000 241.288 C 294.000 240.897,293.640 240.317,293.200 240.000 C 292.760 239.683,292.400 239.103,292.400 238.712 C 292.400 238.320,292.220 238.000,292.000 238.000 C 291.780 238.000,291.600 237.722,291.600 237.383 C 291.600 237.044,291.412 236.549,291.183 236.283 C 290.953 236.017,290.188 234.894,289.483 233.787 C 287.319 230.392,284.286 226.383,282.500 224.558 C 281.565 223.603,280.800 222.663,280.800 222.470 C 280.800 222.007,273.995 215.111,271.196 212.738 C 266.690 208.917,265.200 207.194,265.200 205.805 C 265.200 205.472,265.020 205.200,264.800 205.200 C 264.537 205.200,264.400 195.341,264.400 176.424 C 264.400 157.671,264.261 147.561,264.000 147.400 C 263.780 147.264,263.600 146.881,263.600 146.548 C 263.600 145.343,260.437 141.200,259.517 141.200 C 259.220 141.200,258.717 140.840,258.400 140.400 C 258.083 139.960,257.503 139.600,257.112 139.600 C 256.720 139.600,256.400 139.465,256.400 139.300 C 256.400 139.019,231.153 139.117,230.868 139.400 C 230.795 139.472,231.763 141.302,233.019 143.465 C 234.275 145.629,235.640 147.985,236.051 148.700 C 236.463 149.415,237.140 150.585,237.555 151.300 C 237.970 152.015,239.180 154.130,240.243 156.000 C 241.306 157.870,242.316 159.460,242.488 159.533 C 242.659 159.607,242.800 165.502,242.800 172.633 L 242.800 185.600 200.000 185.600 L 157.200 185.600 157.200 172.880 C 157.200 163.992,157.336 160.024,157.650 159.710 C 158.084 159.276,157.854 158.824,152.351 149.300 C 151.938 148.585,151.240 147.370,150.800 146.600 C 150.360 145.830,149.640 144.570,149.200 143.800 C 148.760 143.030,148.019 141.725,147.554 140.900 C 146.404 138.863,144.532 138.015,143.800 139.200 M208.458 208.009 C 216.080 208.762,225.532 210.846,230.300 212.826 C 230.795 213.032,231.605 213.360,232.100 213.555 C 252.938 221.769,271.328 240.104,279.690 261.000 C 287.202 279.774,287.933 301.569,281.675 320.200 C 275.575 338.360,264.903 352.678,249.095 363.910 C 247.168 365.279,245.521 366.400,245.436 366.400 C 245.351 366.400,244.138 367.086,242.741 367.926 C 239.563 369.833,233.464 372.800,232.719 372.800 C 232.412 372.800,231.989 372.962,231.780 373.159 C 231.459 373.463,227.225 374.948,222.600 376.380 C 212.596 379.478,194.692 380.138,183.800 377.811 C 177.604 376.488,171.698 374.769,168.400 373.329 C 167.630 372.993,166.640 372.582,166.200 372.414 C 160.520 370.255,150.887 364.241,145.039 359.202 C 126.309 343.067,116.192 323.022,114.400 298.500 C 111.434 257.905,139.904 219.385,179.800 210.010 C 181.780 209.544,183.850 209.056,184.400 208.925 C 189.126 207.796,201.523 207.324,208.458 208.009 M198.463 237.900 C 197.928 238.354,196.844 241.061,195.379 245.600 C 194.137 249.450,192.439 254.670,191.605 257.200 C 190.771 259.730,189.511 263.623,188.804 265.851 C 186.096 274.388,186.118 274.380,164.562 274.391 C 145.964 274.401,146.400 274.340,146.400 276.931 C 146.400 278.188,147.083 278.933,150.254 281.140 C 152.326 282.582,165.354 292.017,168.000 293.991 C 168.550 294.402,170.149 295.595,171.552 296.642 C 177.329 300.953,177.311 301.484,170.697 321.600 C 165.292 338.037,165.365 337.714,166.826 338.900 C 168.500 340.258,168.812 340.102,178.200 333.197 C 196.934 319.417,196.849 319.471,200.000 319.471 C 203.134 319.471,204.465 320.311,223.000 334.002 C 224.980 335.465,227.140 337.003,227.800 337.422 C 228.460 337.840,229.090 338.276,229.200 338.391 C 231.803 341.114,234.799 338.835,233.619 335.028 C 232.115 330.178,226.854 313.834,225.692 310.400 C 223.169 302.946,223.834 300.096,228.973 296.330 C 230.528 295.190,233.150 293.272,234.800 292.066 C 236.450 290.860,238.700 289.210,239.800 288.400 C 240.900 287.589,243.420 285.775,245.400 284.368 C 247.380 282.961,249.090 281.706,249.200 281.578 C 249.310 281.451,250.233 280.780,251.252 280.087 C 253.177 278.778,253.600 278.155,253.600 276.629 C 253.600 274.401,253.595 274.400,235.502 274.400 C 213.180 274.400,214.288 274.887,210.477 263.400 C 209.382 260.100,207.096 253.120,205.396 247.889 C 201.863 237.019,200.988 235.759,198.463 237.900 " stroke="none" fill="#fbe37b" fill-rule="evenodd"></path><path id="path3" d="M94.748 0.702 C 94.954 1.088,96.064 3.023,97.213 5.002 C 99.455 8.862,100.339 10.394,101.600 12.600 C 102.040 13.370,102.760 14.630,103.200 15.400 C 104.676 17.984,105.473 19.361,110.598 28.200 C 117.313 39.782,117.946 40.879,119.643 43.900 C 120.106 44.725,120.620 45.580,120.785 45.800 C 120.950 46.020,121.629 47.190,122.294 48.400 C 122.959 49.610,125.798 54.560,128.604 59.400 C 133.730 68.243,134.526 69.621,136.000 72.200 C 137.005 73.958,136.947 73.858,145.002 87.800 C 148.688 94.180,152.040 99.985,152.452 100.700 C 154.202 103.740,167.707 127.118,168.801 129.000 C 176.624 142.461,184.718 156.577,185.366 157.890 L 186.200 159.581 199.900 159.590 C 210.657 159.598,213.600 159.492,213.600 159.096 C 213.600 158.701,207.339 147.607,200.000 135.000 C 199.616 134.340,195.932 127.950,191.814 120.800 C 187.696 113.650,184.189 107.620,184.021 107.400 C 183.853 107.180,183.174 106.010,182.512 104.800 C 181.850 103.590,178.292 97.380,174.605 91.000 C 166.719 77.357,166.636 77.213,165.600 75.400 C 164.700 73.826,164.447 73.387,160.410 66.400 C 158.821 63.650,157.111 60.680,156.610 59.800 C 156.110 58.920,154.395 55.950,152.800 53.200 C 151.206 50.450,149.563 47.615,149.150 46.900 C 148.738 46.185,148.061 45.015,147.646 44.300 C 147.231 43.585,143.518 37.150,139.394 30.000 C 135.271 22.850,131.515 16.348,131.048 15.551 C 130.582 14.754,128.400 10.936,126.200 7.066 L 122.200 0.031 108.286 0.015 C 95.140 0.001,94.393 0.039,94.748 0.702 M278.126 0.500 C 277.949 0.775,277.610 1.360,277.373 1.800 C 276.536 3.353,275.798 4.602,275.600 4.800 C 275.490 4.910,275.023 5.720,274.562 6.600 C 274.100 7.480,273.356 8.830,272.907 9.600 C 272.458 10.370,271.058 12.800,269.795 15.000 C 268.532 17.200,267.185 19.540,266.801 20.200 C 262.792 27.089,262.000 28.513,262.000 28.832 C 262.000 29.034,261.841 29.200,261.647 29.200 C 261.452 29.200,261.190 29.515,261.064 29.900 C 260.938 30.285,260.352 31.410,259.761 32.400 C 259.170 33.390,258.378 34.740,258.000 35.400 C 257.622 36.060,256.830 37.410,256.239 38.400 C 255.648 39.390,255.062 40.515,254.936 40.900 C 254.810 41.285,254.548 41.600,254.353 41.600 C 254.159 41.600,254.000 41.774,254.000 41.986 C 254.000 42.325,251.373 47.031,248.521 51.800 C 247.995 52.680,247.462 53.715,247.336 54.100 C 247.210 54.485,246.948 54.800,246.753 54.800 C 246.559 54.800,246.400 54.972,246.400 55.182 C 246.400 55.393,245.835 56.518,245.144 57.682 C 244.453 58.847,243.553 60.385,243.144 61.100 C 242.446 62.320,241.854 63.355,240.057 66.500 C 239.649 67.215,237.913 70.230,236.200 73.200 C 232.456 79.691,231.412 81.516,229.538 84.845 C 229.242 85.370,228.910 85.890,228.800 86.000 C 228.690 86.110,228.375 86.605,228.100 87.100 C 227.825 87.595,227.375 88.405,227.100 88.900 C 226.825 89.395,226.510 89.890,226.400 90.000 C 226.200 90.200,224.669 93.010,223.840 94.697 C 223.598 95.190,223.265 95.595,223.100 95.597 C 222.935 95.599,222.800 95.765,222.800 95.966 C 222.800 96.381,215.339 109.603,214.788 110.165 C 214.392 110.569,215.264 112.218,222.045 123.900 C 222.460 124.615,223.160 125.830,223.600 126.600 C 224.040 127.370,224.788 128.675,225.262 129.500 C 225.735 130.325,226.482 131.662,226.920 132.470 C 227.817 134.126,228.058 134.024,229.447 131.400 C 229.912 130.520,232.231 126.470,234.600 122.400 C 239.679 113.672,240.307 112.582,242.462 108.755 C 242.758 108.230,243.090 107.710,243.200 107.600 C 243.310 107.490,243.777 106.680,244.238 105.800 C 245.169 104.025,245.529 103.393,249.346 96.848 C 250.806 94.345,252.000 92.212,252.000 92.110 C 252.000 92.007,252.339 91.446,252.753 90.862 C 253.167 90.278,253.887 89.125,254.353 88.300 C 255.143 86.900,255.658 85.997,257.543 82.700 C 257.952 81.985,258.770 80.590,259.361 79.600 C 259.952 78.610,260.538 77.485,260.664 77.100 C 260.790 76.715,261.052 76.400,261.247 76.400 C 261.441 76.400,261.600 76.244,261.600 76.054 C 261.600 75.718,265.288 69.147,269.601 61.800 C 270.763 59.820,272.093 57.480,272.557 56.600 C 273.021 55.720,273.490 54.910,273.600 54.800 C 273.710 54.690,273.997 54.240,274.238 53.800 C 275.279 51.895,275.813 50.987,276.001 50.800 C 276.111 50.690,276.465 50.060,276.788 49.400 C 277.111 48.740,277.876 47.448,278.488 46.528 C 279.099 45.608,279.600 44.758,279.600 44.639 C 279.600 44.520,280.410 43.053,281.400 41.378 C 282.390 39.704,283.200 38.242,283.200 38.129 C 283.200 38.016,283.533 37.446,283.939 36.862 C 284.345 36.278,285.219 34.810,285.880 33.600 C 287.811 30.065,288.863 28.228,289.200 27.800 C 289.373 27.580,289.877 26.750,290.320 25.955 C 291.932 23.060,292.204 22.596,292.401 22.400 C 292.511 22.290,292.865 21.660,293.186 21.000 C 293.508 20.340,294.072 19.350,294.439 18.800 C 295.088 17.827,295.852 16.508,297.914 12.800 C 298.464 11.810,299.855 9.380,301.005 7.400 C 302.155 5.420,303.565 2.945,304.140 1.900 L 305.184 -0.000 291.816 -0.000 C 281.559 -0.000,278.372 0.116,278.126 0.500 M236.300 139.099 C 239.215 139.167,243.985 139.167,246.900 139.099 C 249.815 139.031,247.430 138.975,241.600 138.975 C 235.770 138.975,233.385 139.031,236.300 139.099 " stroke="none" fill="#d3ebfc" fill-rule="evenodd"></path><path id="path4" d="M189.800 208.190 C 187.380 208.463,184.950 208.794,184.400 208.925 C 183.850 209.056,181.780 209.544,179.800 210.010 C 126.910 222.438,98.987 281.832,122.919 331.000 C 131.603 348.841,149.673 366.132,166.200 372.414 C 166.640 372.582,167.630 372.993,168.400 373.329 C 171.698 374.769,177.604 376.488,183.800 377.811 C 194.692 380.138,212.596 379.478,222.600 376.380 C 227.225 374.948,231.459 373.463,231.780 373.159 C 231.989 372.962,232.412 372.800,232.719 372.800 C 233.464 372.800,239.563 369.833,242.741 367.926 C 244.138 367.086,245.351 366.400,245.436 366.400 C 245.521 366.400,247.168 365.279,249.095 363.910 C 263.426 353.728,274.044 340.308,280.010 324.838 C 280.708 323.027,281.202 321.468,281.107 321.373 C 281.012 321.279,280.246 322.942,279.404 325.069 C 274.322 337.909,263.675 352.388,254.013 359.600 C 253.276 360.150,252.477 360.789,252.237 361.020 C 251.366 361.858,246.523 365.089,243.200 367.048 C 238.960 369.548,231.361 373.200,230.399 373.200 C 230.174 373.200,229.677 373.359,229.295 373.553 C 228.142 374.139,226.658 374.718,225.600 374.994 C 225.050 375.137,223.970 375.434,223.200 375.654 C 219.709 376.650,217.283 377.159,211.600 378.086 C 207.686 378.725,192.314 378.725,188.400 378.086 C 182.828 377.177,180.767 376.748,176.800 375.674 C 174.543 375.063,171.455 374.006,170.705 373.587 C 170.323 373.374,169.826 373.200,169.601 373.200 C 168.229 373.200,158.168 368.003,152.999 364.625 C 147.641 361.122,140.755 354.829,135.467 348.600 C 133.973 346.840,132.356 344.944,131.875 344.388 C 131.394 343.831,130.745 342.886,130.432 342.288 C 130.120 341.689,129.715 341.200,129.532 341.200 C 129.350 341.200,129.200 340.964,129.200 340.675 C 129.200 340.387,128.875 339.802,128.478 339.375 C 128.080 338.949,127.497 338.015,127.180 337.300 C 126.864 336.585,126.469 336.000,126.302 336.000 C 126.136 336.000,126.000 335.730,126.000 335.400 C 126.000 335.070,125.820 334.800,125.600 334.800 C 125.380 334.800,125.200 334.538,125.200 334.218 C 125.200 333.897,124.663 332.724,124.006 331.609 C 123.349 330.495,122.699 329.136,122.561 328.588 C 122.424 328.040,122.151 327.494,121.956 327.373 C 121.760 327.252,121.600 326.885,121.600 326.557 C 121.600 326.229,121.240 325.216,120.800 324.306 C 120.360 323.395,120.000 322.334,120.000 321.948 C 120.000 321.563,119.820 321.136,119.600 321.000 C 119.380 320.864,119.200 320.324,119.200 319.800 C 119.200 319.276,119.020 318.736,118.800 318.600 C 118.580 318.464,118.400 317.834,118.400 317.200 C 118.400 316.566,118.240 315.948,118.044 315.827 C 117.701 315.615,117.422 314.389,116.944 311.000 C 116.820 310.120,116.556 309.229,116.359 309.020 C 116.162 308.811,116.000 307.632,116.000 306.400 C 116.000 305.168,115.814 303.974,115.587 303.747 C 114.751 302.911,115.542 278.750,116.435 277.820 C 116.636 277.611,116.800 276.904,116.800 276.248 C 116.800 275.593,116.968 274.504,117.173 273.828 C 117.378 273.153,117.762 271.790,118.026 270.800 C 118.732 268.158,119.984 264.382,120.633 262.940 C 120.945 262.246,121.200 261.561,121.200 261.418 C 121.200 260.869,125.129 252.445,125.592 252.000 C 125.983 251.624,127.249 249.401,127.471 248.700 C 127.593 248.315,127.852 248.000,128.047 248.000 C 128.241 248.000,128.400 247.730,128.400 247.400 C 128.400 247.070,128.580 246.800,128.800 246.800 C 129.020 246.800,129.200 246.530,129.200 246.200 C 129.200 245.870,129.350 245.600,129.532 245.600 C 129.715 245.600,130.120 245.105,130.432 244.500 C 130.745 243.895,131.228 243.159,131.506 242.865 C 131.784 242.571,132.504 241.671,133.106 240.865 C 136.358 236.509,144.273 228.623,148.029 225.997 C 148.783 225.470,149.490 224.921,149.600 224.778 C 149.977 224.288,156.745 220.053,159.274 218.726 C 160.663 217.997,161.860 217.265,161.933 217.100 C 162.007 216.935,162.305 216.800,162.596 216.800 C 162.886 216.800,163.906 216.414,164.862 215.943 C 165.818 215.472,167.050 214.911,167.600 214.697 C 168.150 214.482,168.913 214.148,169.295 213.953 C 169.677 213.759,170.262 213.600,170.595 213.600 C 170.928 213.600,171.200 213.420,171.200 213.200 C 171.200 212.980,171.740 212.800,172.400 212.800 C 173.060 212.800,173.600 212.620,173.600 212.400 C 173.600 212.180,174.140 212.000,174.800 212.000 C 175.460 212.000,176.000 211.820,176.000 211.600 C 176.000 211.380,176.619 211.200,177.376 211.200 C 178.133 211.200,178.864 211.020,179.000 210.800 C 179.136 210.580,179.946 210.400,180.800 210.400 C 181.654 210.400,182.464 210.220,182.600 210.000 C 182.736 209.780,183.636 209.600,184.600 209.600 C 185.564 209.600,186.447 209.448,186.562 209.262 C 187.309 208.053,213.200 208.052,213.200 209.261 C 213.200 209.448,214.190 209.600,215.400 209.600 C 216.610 209.600,217.600 209.780,217.600 210.000 C 217.600 210.220,218.309 210.400,219.176 210.400 C 220.043 210.400,220.864 210.580,221.000 210.800 C 221.136 211.020,221.959 211.200,222.829 211.200 C 223.699 211.200,224.723 211.358,225.105 211.551 C 225.487 211.744,226.520 212.116,227.400 212.377 C 228.280 212.639,229.405 213.021,229.900 213.226 C 230.395 213.432,231.205 213.757,231.700 213.949 C 236.351 215.749,247.980 222.073,249.689 223.730 C 249.970 224.003,250.830 224.668,251.600 225.207 C 254.164 227.005,254.567 227.369,260.225 233.000 C 263.319 236.080,266.705 239.770,267.748 241.200 C 268.791 242.630,269.905 244.117,270.222 244.505 C 270.540 244.892,270.800 245.305,270.800 245.423 C 270.800 245.540,271.667 246.933,272.726 248.518 C 273.785 250.103,275.090 252.342,275.626 253.493 C 276.526 255.426,277.509 256.500,276.915 254.900 C 276.667 254.233,276.265 253.480,274.368 250.131 C 265.604 234.656,248.850 220.158,232.100 213.555 C 231.605 213.360,230.795 213.032,230.300 212.826 C 227.119 211.505,221.827 210.140,214.800 208.829 C 208.033 207.566,197.683 207.301,189.800 208.190 M197.936 237.124 C 197.094 237.983,196.797 238.738,194.998 244.600 C 194.188 247.240,193.362 249.713,193.163 250.095 C 192.963 250.477,192.800 251.141,192.800 251.571 C 192.800 252.001,192.620 252.464,192.400 252.600 C 192.180 252.736,192.000 253.377,192.000 254.024 C 192.000 254.671,191.820 255.200,191.600 255.200 C 191.380 255.200,191.200 255.740,191.200 256.400 C 191.200 257.060,191.020 257.600,190.800 257.600 C 190.580 257.600,190.400 258.140,190.400 258.800 C 190.400 259.460,190.220 260.000,190.000 260.000 C 189.780 260.000,189.600 260.540,189.600 261.200 C 189.600 261.860,189.420 262.400,189.200 262.400 C 188.980 262.400,188.800 262.839,188.800 263.376 C 188.800 263.913,188.620 264.464,188.400 264.600 C 188.180 264.736,188.000 265.366,188.000 266.000 C 188.000 266.634,187.820 267.264,187.600 267.400 C 187.380 267.536,187.200 267.909,187.200 268.229 C 187.200 269.209,185.541 271.409,184.031 272.431 L 182.600 273.400 164.971 273.600 C 144.889 273.828,145.850 273.652,145.902 277.089 C 145.917 278.090,146.104 279.020,146.318 279.155 C 146.532 279.290,147.223 279.794,147.854 280.275 C 149.296 281.377,155.627 285.999,156.791 286.800 C 158.628 288.065,163.032 291.260,163.705 291.817 C 164.092 292.138,164.587 292.400,164.805 292.400 C 165.022 292.400,165.200 292.541,165.200 292.714 C 165.200 292.886,165.733 293.343,166.385 293.728 C 167.037 294.113,167.802 294.653,168.085 294.927 C 168.368 295.202,169.230 295.855,170.000 296.379 C 172.331 297.966,174.800 300.753,174.800 301.797 C 174.800 302.323,174.980 302.864,175.200 303.000 C 175.420 303.136,175.600 303.687,175.600 304.224 C 175.600 304.761,175.420 305.200,175.200 305.200 C 174.980 305.200,174.800 305.819,174.800 306.576 C 174.800 307.333,174.620 308.064,174.400 308.200 C 174.180 308.336,174.000 308.876,174.000 309.400 C 174.000 309.924,173.820 310.464,173.600 310.600 C 173.380 310.736,173.200 311.276,173.200 311.800 C 173.200 312.324,173.020 312.864,172.800 313.000 C 172.580 313.136,172.400 313.676,172.400 314.200 C 172.400 314.724,172.220 315.264,172.000 315.400 C 171.780 315.536,171.600 316.076,171.600 316.600 C 171.600 317.124,171.420 317.664,171.200 317.800 C 170.980 317.936,170.800 318.476,170.800 319.000 C 170.800 319.524,170.620 320.064,170.400 320.200 C 170.180 320.336,170.000 320.876,170.000 321.400 C 170.000 321.924,169.820 322.464,169.600 322.600 C 169.380 322.736,169.200 323.276,169.200 323.800 C 169.200 324.324,169.020 324.864,168.800 325.000 C 168.580 325.136,168.400 325.676,168.400 326.200 C 168.400 326.724,168.220 327.264,168.000 327.400 C 167.780 327.536,167.600 327.999,167.600 328.429 C 167.600 328.859,167.441 329.523,167.246 329.905 C 162.509 339.203,166.539 343.220,174.225 336.860 C 174.459 336.667,175.089 336.277,175.625 335.994 C 176.161 335.712,176.690 335.364,176.800 335.221 C 176.910 335.078,177.630 334.526,178.400 333.994 C 179.170 333.462,180.032 332.802,180.315 332.527 C 180.598 332.253,181.363 331.713,182.015 331.328 C 182.667 330.943,183.200 330.486,183.200 330.314 C 183.200 330.141,183.470 330.000,183.800 330.000 C 184.130 330.000,184.400 329.859,184.400 329.686 C 184.400 329.514,184.933 329.057,185.585 328.672 C 186.237 328.287,187.002 327.747,187.285 327.471 C 187.568 327.196,188.969 326.167,190.397 325.185 C 191.826 324.203,193.356 323.068,193.797 322.662 C 198.117 318.692,203.484 319.576,209.775 325.295 C 210.202 325.683,210.747 326.000,210.987 326.000 C 211.227 326.000,211.683 326.360,212.000 326.800 C 212.317 327.240,212.807 327.600,213.088 327.600 C 213.370 327.600,213.600 327.741,213.600 327.914 C 213.600 328.086,214.133 328.543,214.785 328.928 C 215.437 329.313,216.202 329.853,216.485 330.129 C 216.768 330.404,218.170 331.433,219.600 332.415 C 221.030 333.397,222.290 334.299,222.400 334.419 C 222.510 334.540,223.230 335.071,224.000 335.600 C 224.770 336.129,225.490 336.680,225.600 336.825 C 225.710 336.970,226.413 337.403,227.162 337.787 C 227.912 338.171,228.899 338.834,229.357 339.261 C 231.816 341.551,235.375 339.048,234.428 335.695 C 234.133 334.653,233.716 333.080,233.499 332.200 C 233.283 331.320,232.947 330.287,232.753 329.905 C 232.559 329.523,232.400 328.859,232.400 328.429 C 232.400 327.999,232.220 327.536,232.000 327.400 C 231.780 327.264,231.600 326.724,231.600 326.200 C 231.600 325.676,231.420 325.136,231.200 325.000 C 230.980 324.864,230.800 324.324,230.800 323.800 C 230.800 323.276,230.620 322.736,230.400 322.600 C 230.180 322.464,230.000 321.924,230.000 321.400 C 230.000 320.876,229.820 320.336,229.600 320.200 C 229.380 320.064,229.200 319.423,229.200 318.776 C 229.200 318.129,229.020 317.600,228.800 317.600 C 228.580 317.600,228.400 317.161,228.400 316.624 C 228.400 316.087,228.220 315.536,228.000 315.400 C 227.780 315.264,227.600 314.634,227.600 314.000 C 227.600 313.366,227.420 312.736,227.200 312.600 C 226.980 312.464,226.800 311.924,226.800 311.400 C 226.800 310.876,226.620 310.336,226.400 310.200 C 226.180 310.064,226.000 309.524,226.000 309.000 C 226.000 308.476,225.841 307.949,225.646 307.829 C 225.101 307.491,224.740 304.318,225.036 302.465 C 225.322 300.677,227.359 298.183,230.000 296.390 C 230.770 295.866,231.490 295.328,231.600 295.193 C 231.710 295.058,232.700 294.340,233.800 293.597 C 234.900 292.854,235.860 292.101,235.933 291.923 C 236.007 291.745,236.307 291.600,236.600 291.600 C 236.893 291.600,237.193 291.454,237.267 291.275 C 237.340 291.096,238.660 290.074,240.199 289.004 C 241.739 287.934,243.236 286.821,243.528 286.529 C 243.819 286.238,244.211 286.000,244.400 286.000 C 244.589 286.000,244.981 285.769,245.271 285.487 C 245.562 285.205,246.430 284.538,247.200 284.006 C 247.970 283.474,248.690 282.931,248.800 282.800 C 248.910 282.669,249.630 282.131,250.400 281.605 C 253.029 279.807,254.001 278.534,253.987 276.904 C 253.960 273.643,255.009 273.825,234.968 273.600 C 223.774 273.474,217.064 273.251,216.885 272.999 C 216.728 272.779,216.107 272.345,215.505 272.034 C 214.902 271.724,214.183 270.959,213.907 270.335 C 213.631 269.711,213.269 269.200,213.102 269.200 C 212.936 269.200,212.800 268.750,212.800 268.200 C 212.800 267.650,212.620 267.200,212.400 267.200 C 212.180 267.200,212.000 266.671,212.000 266.024 C 212.000 265.377,211.820 264.736,211.600 264.600 C 211.380 264.464,211.200 263.913,211.200 263.376 C 211.200 262.839,211.020 262.400,210.800 262.400 C 210.580 262.400,210.400 261.860,210.400 261.200 C 210.400 260.540,210.220 260.000,210.000 260.000 C 209.780 260.000,209.600 259.460,209.600 258.800 C 209.600 258.140,209.420 257.600,209.200 257.600 C 208.980 257.600,208.800 257.216,208.800 256.747 C 208.800 256.279,208.280 254.344,207.645 252.447 C 205.774 246.863,203.599 239.834,203.600 239.372 C 203.601 237.252,199.434 235.598,197.936 237.124 M201.463 237.789 C 202.076 238.218,203.146 240.966,205.396 247.889 C 215.014 277.484,211.512 274.400,235.502 274.400 C 253.595 274.400,253.600 274.401,253.600 276.629 C 253.600 278.155,253.177 278.778,251.252 280.087 C 250.233 280.780,249.310 281.451,249.200 281.578 C 249.090 281.706,247.380 282.961,245.400 284.368 C 243.420 285.775,240.900 287.589,239.800 288.400 C 238.700 289.210,236.450 290.860,234.800 292.066 C 233.150 293.272,230.528 295.190,228.973 296.330 C 223.834 300.096,223.169 302.946,225.692 310.400 C 226.854 313.834,232.115 330.178,233.619 335.028 C 234.799 338.835,231.803 341.114,229.200 338.391 C 229.090 338.276,228.460 337.840,227.800 337.422 C 227.140 337.003,224.980 335.465,223.000 334.002 C 204.465 320.311,203.134 319.471,200.000 319.471 C 196.849 319.471,196.934 319.417,178.200 333.197 C 168.812 340.102,168.500 340.258,166.826 338.900 C 165.365 337.714,165.292 338.037,170.697 321.600 C 177.311 301.484,177.329 300.953,171.552 296.642 C 170.149 295.595,168.550 294.402,168.000 293.991 C 165.354 292.017,152.326 282.582,150.254 281.140 C 147.083 278.933,146.400 278.188,146.400 276.931 C 146.400 274.340,145.964 274.401,164.562 274.391 C 186.118 274.380,186.096 274.388,188.804 265.851 C 189.511 263.623,190.771 259.730,191.605 257.200 C 192.439 254.670,194.137 249.450,195.379 245.600 C 198.044 237.339,199.024 236.081,201.463 237.789 M277.218 256.262 C 277.208 256.516,277.586 257.506,278.057 258.462 C 278.992 260.360,279.191 260.841,280.248 263.764 C 280.638 264.844,281.019 265.542,281.095 265.315 C 281.248 264.857,279.201 259.520,278.003 257.253 C 277.581 256.454,277.227 256.008,277.218 256.262 M281.203 266.300 C 281.205 266.465,281.563 267.770,281.998 269.200 C 285.716 281.402,286.475 296.159,284.035 308.800 C 283.189 313.185,282.745 315.100,281.970 317.699 C 281.516 319.227,281.233 320.566,281.342 320.676 C 281.593 320.926,282.887 316.731,283.649 313.200 C 285.397 305.093,285.763 301.686,285.779 293.400 C 285.793 285.548,285.307 280.763,283.787 273.800 C 283.047 270.406,281.190 265.018,281.203 266.300 " stroke="none" fill="#ecad39" fill-rule="evenodd"></path></g></svg>