<svg id="Group_8860" data-name="Group 8860" xmlns="http://www.w3.org/2000/svg" width="94.857" height="122.2" viewBox="0 0 94.857 122.2">
    <path id="Path_113" data-name="Path 113" d="M1555.767,1342.658a13.733,13.733,0,0,0-2.867-.339C1552.16,1342.43,1555.025,1344.322,1555.767,1342.658Z" transform="translate(-1504.501 -1295.095)" fill="#eb4747"/>
    <path id="Path_114" data-name="Path 114" d="M1572.452,1160.41a8.139,8.139,0,0,0,1.439-1.439c.367-.592,2.52-7.069,2.915-8s.974-4.053,1.5-5.181c.55-1.169,4.55-9.609,4.832-12.316l3.609-.609s-2.1,13.308-2.412,14.662-1.676,4.421-1.93,5.662a37.035,37.035,0,0,1-2.313,6.656c-.621.931-4.062,9.533-4.062,9.533S1570.252,1163.428,1572.452,1160.41Z" transform="translate(-1521.185 -1112.848)" fill="#eea886"/>
    <path id="Path_115" data-name="Path 115" d="M1781.026,998.808h-1.891c.041.077.082.148.122.214-4.158,1.02-7.294,5.562-7.294,11.012s3.126,9.979,7.275,11.007a1.934,1.934,0,0,0-.1.219h1.891c5,0,9.062-5.026,9.062-11.226S1786.031,998.808,1781.026,998.808Z" transform="translate(-1695.231 -996.193)" fill="#325c80"/>
    <path id="Path_116" data-name="Path 116" d="M1775.52,1010.034c0,6.2-4.057,11.226-9.062,11.226s-9.063-5.026-9.063-11.226,4.058-11.226,9.063-11.226S1775.52,1003.834,1775.52,1010.034Z" transform="translate(-1682.554 -996.193)" fill="#3f74a0"/>
    <path id="Path_117" data-name="Path 117" d="M1745.4,978.662h-2.332c.051.1.1.183.15.265-5.127,1.257-8.992,6.857-8.992,13.577s3.854,12.3,8.969,13.571a2.325,2.325,0,0,0-.127.27h2.332c6.171,0,11.174-6.2,11.174-13.841S1751.568,978.662,1745.4,978.662Z" transform="translate(-1662.391 -978.662)" fill="#325c80"/>
    <ellipse id="Ellipse_406" data-name="Ellipse 406" cx="11.174" cy="13.841" rx="11.174" ry="13.841" transform="translate(69.501 0)" fill="#3f74a0"/>
    <path id="Path_118" data-name="Path 118" d="M1488.218,1563.177s1.354.507,2.736.959,4.541,3.074,5.726,3.779,7.023,2.821,7.7,4.823-.141,4.682,0,5.641a27.461,27.461,0,0,1-.141,6.882c-.451,2.2-2.99,14.215-2.99,14.215a12.317,12.317,0,0,1-4.541-.17s.9-7.023.339-10.013.085-7.7.423-9.448.638-2.933-1.035-2.99-7.991-.62-11.686-2.933-3.779-2.2-5.359-2.2-5.923-12.89-5.923-12.89S1484.156,1559.679,1488.218,1563.177Z" transform="translate(-1435.485 -1483.517)" fill="#eea886"/>
    <path id="Path_119" data-name="Path 119" d="M1255.585,1563.328s-1.749.282-2.087.846-6.431,8.038-8.518,9.082-4.062,3.922-5.678,4.6c-1.567.656-8.48,1.635-11.414,1.522a61.9,61.9,0,0,0-8.4.7s-5.19.395-2.369-3.018c0,0,8.377-3.1,10.436-4.005a22.453,22.453,0,0,1,7.559-1.693c1.749.085,3.836-4.259,4.372-5.387s4.146-7.982,5.3-9.336,1.071-3.731,4.966-6.953C1253.517,1546.574,1257.588,1558.73,1255.585,1563.328Z" transform="translate(-1211.68 -1475.122)" fill="#eea886"/>
    <path id="Path_120" data-name="Path 120" d="M1497.487,1568.319h0s-2.81-1.26-4.954,3.234a7.238,7.238,0,0,0-.212,4.857,21.8,21.8,0,0,1-7.573-2.488c-3.695-2.313-3.779-2.2-5.359-2.2s-5.923-12.89-5.923-12.89,10.689.846,14.751,4.344c0,0,1.354.507,2.736.959C1492.158,1564.528,1496.066,1567.334,1497.487,1568.319Z" transform="translate(-1435.485 -1483.517)" fill="#eb4747"/>
    <path id="Path_121" data-name="Path 121" d="M1413.959,1563.328s-1.749.282-2.087.846c-.2.328-2.341,2.994-4.511,5.374h0s-4.442.62-9.084-4.408h0a80.955,80.955,0,0,1,4.882-8.5c1.156-1.354,1.071-3.731,4.967-6.953C1411.891,1546.574,1415.962,1558.73,1413.959,1563.328Z" transform="translate(-1370.054 -1475.122)" fill="#eb4747"/>
    <path id="Path_122" data-name="Path 122" d="M1507.573,1246.138s5.547-2.241,5.206,5.011-1.761,8.021-5.351,7.008-3.84-5.4-4.308-7.6S1505.788,1246.455,1507.573,1246.138Z" transform="translate(-1461.248 -1211.131)" fill="#eea886"/>
    <path id="Path_123" data-name="Path 123" d="M1498.888,1244.4s-.016-1.937.79-2.116,1.221.942,1.221.942l.649-.035s-.58-1.963.188-2.413,5.363-.055,5.94-.716-.26-4.587-1.513-4.972-4.678-1.167-6.853.77c0,0-1.892.036-1.968,1.577A20.811,20.811,0,0,0,1498.888,1244.4Z" transform="translate(-1456.257 -1201.382)" fill="#163342"/>
    <path id="Path_124" data-name="Path 124" d="M1512.517,1284.7c-.241-.639-1.6-.558-1.463.455s1.264,2.574,1.716,2.281S1512.85,1285.579,1512.517,1284.7Z" transform="translate(-1468.184 -1244.614)" fill="#eea886"/>
    <path id="Path_125" data-name="Path 125" d="M1471.746,1342.774a57.614,57.614,0,0,1,3.545,6.8,61.313,61.313,0,0,1,1.165,8.545c-.056,2.764-1.918,6.825-2.355,8.377s-1.424,5.866-.888,8.377c0,0-11.649-1.551-14.751-4.344,0,0,.536-4.654.733-5.867a18.469,18.469,0,0,0-1.156-7.023c-.846-1.918-1.467-6.628-1.8-9.11s7.587-6.092,7.587-6.092Z" transform="translate(-1420.479 -1295.211)" fill="#eb4747"/>
    <path id="Path_126" data-name="Path 126" d="M1460.306,1141.964s-.809-1.833-.983-2.341-.575-5.42-1.238-8.311c-.532-2.321.218-5.227-.4-8.076s-2-11.648-2.172-13.595a13.791,13.791,0,0,0-3.582,0s-.677,10.323-.536,12.213,1.1,6.459.931,8.236-.733,7.954-.62,9.674-.374,7.061.786,9.425S1463.521,1150.115,1460.306,1141.964Z" transform="translate(-1416.26 -1092.539)" fill="#eea886"/>
    <path id="Path_127" data-name="Path 127" d="M1513.5,1314.075s-2.525.785-6.191-1.128a25.6,25.6,0,0,0-.535-4.906c-.475-1.609,6.474,3.708,6.474,3.708s.012.254.039.6c.018.237.042.518.071.793A7.569,7.569,0,0,0,1513.5,1314.075Z" transform="translate(-1464.443 -1265.018)" fill="#eea886"/>
    <path id="Path_128" data-name="Path 128" d="M1647.076,1083.668a4.473,4.473,0,0,0-.071-1.692c-.226-.409-1.34-2.858-1.551-3.314-.139-.3.212-3.089,1.2-3.032a33.181,33.181,0,0,1,4.767,1.523s.526,2.7.188,3.375-1.333,3.848-1.305,3.566S1647.076,1083.668,1647.076,1083.668Z" transform="translate(-1585.119 -1063.041)" fill="#eea886"/>
    <path id="Path_129" data-name="Path 129" d="M1641.659,1072.376a7.615,7.615,0,0,1-.729-3.4c.081-.754-.178-.884.141-.9s1.133-.182,1.566,2.045,1.466,2.416,1.466,2.416Z" transform="translate(-1581.188 -1056.458)" fill="#eea886"/>
    <path id="Path_130" data-name="Path 130" d="M1443.611,1060.4s-.155-1.5.409-1.347.8,1.18,1.269,1.344.9,1.666.771,2.324a26.3,26.3,0,0,0-.9,3.431c.059.56-3.582,0-3.582,0s-.282-1.213-1.015-1.57-.912-1.209-1.1-1.792l4.868-.109Z" transform="translate(-1405.897 -1048.607)" fill="#eea886"/>
    <rect id="Rectangle_1595" data-name="Rectangle 1595" width="52.799" height="1.793" transform="translate(25.205 12.746)" fill="#3f74a0"/>
    <path id="Path_131" data-name="Path 131" d="M1644.286,1864.726a9.822,9.822,0,0,0,1.935,0c.865-.113,1.561-1.091,2.952-.489s2.313,2.388,3.4,2.633,3.817,1.391,3.573,2.877-3.253,2.087-6.055,1.015a22.4,22.4,0,0,0-6.2-1.542c-1.56-.15-.564-2.426-.226-3.2S1644.286,1864.726,1644.286,1864.726Z" transform="translate(-1583.042 -1749.105)" fill="#e8734d"/>
    <path id="Path_132" data-name="Path 132" d="M1197.691,1763.932s-.24,1.4.24,1.579,2.567,1.143,2.708,1.523,1.974,4.456,2.595,4.64,3.554.452,3.328,1.89-3.54,1.749-5.894,1.269-4.894-4.062-5.429-4.372a2.4,2.4,0,0,1-.9-3.37A11.271,11.271,0,0,1,1197.691,1763.932Z" transform="translate(-1192.257 -1661.991)" fill="#e8734d"/>
    <path id="Path_133" data-name="Path 133" d="M1652.757,1075.254a.824.824,0,0,0,.656.423c.447.035,1.2.078,2.094.057,1.474-.034,2.347-.2,2.1-1.343s-.786-.941-1.312-1.223-4.021-.424-4.171.215A3.8,3.8,0,0,0,1652.757,1075.254Z" transform="translate(-1590.938 -1060.692)" fill="#eea886"/>
    <path id="Path_134" data-name="Path 134" d="M1444.878,1067.734s.347.19.76,1.111.587,1.468.117,1.732a14.552,14.552,0,0,1-4.137.132c-.959-.113-1.015-1.446-1.05-1.791-.063-.635.335-1.03,1.012-1.18A12.689,12.689,0,0,1,1444.878,1067.734Z" transform="translate(-1406.852 -1056.08)" fill="#eea886"/>
    <path id="Path_135" data-name="Path 135" d="M1219.089,978.662h-2.332c.051.1.1.183.151.265-5.127,1.257-8.993,6.857-8.993,13.577s3.854,12.3,8.97,13.571a2.4,2.4,0,0,0-.128.27h2.332c6.171,0,11.174-6.2,11.174-13.841S1225.26,978.662,1219.089,978.662Z" transform="translate(-1204.406 -978.662)" fill="#325c80"/>
    <path id="Path_136" data-name="Path 136" d="M1212.3,992.5c0,7.645-5,13.841-11.174,13.841s-11.174-6.2-11.174-13.841,5-13.841,11.174-13.841S1212.3,984.859,1212.3,992.5Z" transform="translate(-1188.777 -978.662)" fill="#3f74a0"/>
    <path id="Path_137" data-name="Path 137" d="M1219.089,978.662h-2.332c.051.1.1.183.151.265-5.127,1.257-8.993,6.857-8.993,13.577s3.854,12.3,8.97,13.571a2.4,2.4,0,0,0-.128.27h2.332c6.171,0,11.174-6.2,11.174-13.841S1225.26,978.662,1219.089,978.662Z" transform="translate(-1204.406 -978.662)" fill="#325c80"/>
    <path id="Path_138" data-name="Path 138" d="M1212.3,992.5c0,7.645-5,13.841-11.174,13.841s-11.174-6.2-11.174-13.841,5-13.841,11.174-13.841S1212.3,984.859,1212.3,992.5Z" transform="translate(-1188.777 -978.662)" fill="#3f74a0"/>
    <path id="Path_139" data-name="Path 139" d="M1213.584,998.808h-1.891c.041.077.082.148.122.214-4.158,1.02-7.293,5.562-7.293,11.012s3.126,9.979,7.275,11.007a1.91,1.91,0,0,0-.1.219h1.891c5.005,0,9.063-5.026,9.063-11.226S1218.589,998.808,1213.584,998.808Z" transform="translate(-1201.453 -996.193)" fill="#325c80"/>
    <path id="Path_140" data-name="Path 140" d="M1208.08,1010.034c0,6.2-4.057,11.226-9.063,11.226s-9.062-5.026-9.062-11.226,4.057-11.226,9.062-11.226S1208.08,1003.834,1208.08,1010.034Z" transform="translate(-1188.777 -996.193)" fill="#3f74a0"/>
    <path id="Path_141" data-name="Path 141" d="M1213.584,998.808h-1.891c.041.077.082.148.122.214-4.158,1.02-7.293,5.562-7.293,11.012s3.126,9.979,7.275,11.007a1.91,1.91,0,0,0-.1.219h1.891c5.005,0,9.063-5.026,9.063-11.226S1218.589,998.808,1213.584,998.808Z" transform="translate(-1201.453 -996.193)" fill="#325c80"/>
    <path id="Path_142" data-name="Path 142" d="M1208.08,1010.034c0,6.2-4.057,11.226-9.063,11.226s-9.062-5.026-9.062-11.226,4.057-11.226,9.062-11.226S1208.08,1003.834,1208.08,1010.034Z" transform="translate(-1188.777 -996.193)" fill="#3f74a0"/>
    <path id="Path_143" data-name="Path 143" d="M1201.166,1011.056h-1.623c.035.066.07.127.1.184-3.569.875-6.26,4.774-6.26,9.452s2.683,8.566,6.244,9.448a1.7,1.7,0,0,0-.089.188h1.623c4.3,0,7.779-4.315,7.779-9.636S1205.462,1011.056,1201.166,1011.056Z" transform="translate(-1191.764 -1006.851)" fill="#325c80"/>
    <path id="Path_144" data-name="Path 144" d="M1196.442,1020.692c0,5.322-3.483,9.636-7.779,9.636s-7.779-4.315-7.779-9.636,3.483-9.636,7.779-9.636S1196.442,1015.37,1196.442,1020.692Z" transform="translate(-1180.884 -1006.851)" fill="#3f74a0"/>
    <path id="Path_145" data-name="Path 145" d="M1529.346,1337.115a6.054,6.054,0,0,1-4.221-1.831,6.489,6.489,0,0,0,4.15,1.038C1529.292,1336.559,1529.316,1336.84,1529.346,1337.115Z" transform="translate(-1480.437 -1288.989)" fill="#a77860"/>
</svg>
