<svg xmlns="http://www.w3.org/2000/svg" width="12.29" height="19.024" viewBox="0 0 12.29 19.024">
    <path id="Icon_zocial-google" data-name="Icon zocial-google" d="M6.557,15.669A3.693,3.693,0,0,1,8.25,12.721a6.538,6.538,0,0,1,4.09-1.294h1.027a2.246,2.246,0,0,1-.8-1.636,2.27,2.27,0,0,1,.3-1.1c-.127.012-.31.019-.552.019A4.412,4.412,0,0,1,9.087,7.469,4.1,4.1,0,0,1,7.831,4.425,3.841,3.841,0,0,1,9.391,1.4,5.417,5.417,0,0,1,12.949.107h5.9l-1.313.951H15.669a2.636,2.636,0,0,1,1.4,1.294,4.439,4.439,0,0,1,.5,2.112A3.842,3.842,0,0,1,15.9,7.545a4.34,4.34,0,0,0-.913.875,1.445,1.445,0,0,0-.209.8,1.534,1.534,0,0,0,.513.913,7.513,7.513,0,0,0,1.028.932,5,5,0,0,1,1.608,1.674,4.621,4.621,0,0,1,.447,2.15,3.745,3.745,0,0,1-1.56,2.977,6.512,6.512,0,0,1-4.223,1.265,8.86,8.86,0,0,1-4.281-.951A2.832,2.832,0,0,1,6.557,15.669Zm2.131-.627A2.81,2.81,0,0,0,9.8,17.278a4.193,4.193,0,0,0,2.767.922,5.164,5.164,0,0,0,3.282-.836,2.735,2.735,0,0,0,1.018-2.226,2.1,2.1,0,0,0-.076-.609,3.09,3.09,0,0,0-.133-.39,1.425,1.425,0,0,0-.229-.361c-.1-.121-.19-.222-.266-.3a2.807,2.807,0,0,0-.371-.314c-.171-.127-.3-.222-.39-.285s-.247-.175-.476-.334-.394-.269-.495-.333a4.942,4.942,0,0,0-1.465-.228h-.076a4.888,4.888,0,0,0-2.911.894A2.626,2.626,0,0,0,8.687,15.042ZM9.942,4.407a4.884,4.884,0,0,0,1.152,2.587,2.8,2.8,0,0,0,2.084,1.1h.076a1.968,1.968,0,0,0,1.713-.989,3.406,3.406,0,0,0,.513-1.883,5.825,5.825,0,0,0-.038-.647A4.568,4.568,0,0,0,14.31,2.029,2.909,2.909,0,0,0,12.226.945H12.15a1.987,1.987,0,0,0-1.731.97,3.313,3.313,0,0,0-.514,1.864A5.329,5.329,0,0,0,9.942,4.407Z" transform="translate(-6.557 -0.107)" fill="#f3655e"/>
</svg>
