<svg id="Group_8857" data-name="Group 8857" xmlns="http://www.w3.org/2000/svg" width="89.828" height="88.713" viewBox="0 0 89.828 88.713">
    <path id="Path_81" data-name="Path 81" d="M2603.712,134.926h-1.791c.039.073.078.14.116.2-3.938.965-6.907,5.267-6.907,10.428s2.96,9.45,6.889,10.423a1.8,1.8,0,0,0-.1.207h1.791c4.74,0,8.582-4.76,8.582-10.631S2608.452,134.926,2603.712,134.926Z" transform="translate(-2522.466 -132.449)" fill="#325c80"/>
    <ellipse id="Ellipse_402" data-name="Ellipse 402" cx="8.582" cy="10.631" rx="8.582" ry="10.631" transform="translate(70.873 2.477)" fill="#3f74a0"/>
    <path id="Path_82" data-name="Path 82" d="M2563.915,112.616h-2.208c.048.09.1.173.143.25-4.855,1.19-8.516,6.494-8.516,12.857s3.65,11.651,8.494,12.852a2.308,2.308,0,0,0-.121.256h2.208c5.844,0,10.582-5.869,10.582-13.108S2569.759,112.616,2563.915,112.616Z" transform="translate(-2485.31 -112.616)" fill="#325c80"/>
    <path id="Path_83" data-name="Path 83" d="M2554.607,125.724c0,7.239-4.738,13.108-10.582,13.108s-10.581-5.869-10.581-13.108,4.738-13.108,10.581-13.108S2554.607,118.484,2554.607,125.724Z" transform="translate(-2467.628 -112.616)" fill="#3f74a0"/>
    <path id="Path_84" data-name="Path 84" d="M2473.073,227.608a4.237,4.237,0,0,0-.067-1.6c-.214-.387-1.269-2.706-1.469-3.138-.132-.284.2-2.925,1.135-2.871a31.446,31.446,0,0,1,4.514,1.442s.5,2.555.178,3.2-1.263,3.644-1.236,3.377S2473.073,227.608,2473.073,227.608Z" transform="translate(-2412.569 -208.074)" fill="#eea886"/>
    <path id="Path_85" data-name="Path 85" d="M2467.217,215.7a7.208,7.208,0,0,1-.69-3.219c.076-.714-.169-.837.133-.855s1.073-.172,1.482,1.936,1.389,2.288,1.389,2.288Z" transform="translate(-2408.12 -200.628)" fill="#eea886"/>
    <path id="Path_86" data-name="Path 86" d="M2149.234,210.879s-.146-1.418.388-1.276.757,1.118,1.2,1.273.854,1.578.73,2.2-.982,4.364-.926,4.894-3.52-.005-3.52-.005-.063-2.789-.758-3.127-.864-1.145-1.041-1.7l4.61-.1Z" transform="translate(-2122.58 -198.828)" fill="#eea886"/>
    <rect id="Rectangle_1594" data-name="Rectangle 1594" width="50" height="1.698" transform="translate(23.869 12.07)" fill="#3f74a0"/>
    <path id="Path_87" data-name="Path 87" d="M2479.525,219.208a.78.78,0,0,0,.622.4,19.8,19.8,0,0,0,1.983.055c1.4-.032,2.222-.186,1.99-1.272s-.744-.892-1.242-1.159-3.808-.4-3.95.2A3.6,3.6,0,0,0,2479.525,219.208Z" transform="translate(-2419.151 -205.418)" fill="#eea886"/>
    <path id="Path_88" data-name="Path 88" d="M2150.612,219.2s.328.18.72,1.052.555,1.391.11,1.64a13.779,13.779,0,0,1-3.917.125c-.908-.107-.961-1.369-.994-1.7-.06-.6.317-.975.958-1.118A12.029,12.029,0,0,1,2150.612,219.2Z" transform="translate(-2123.661 -207.283)" fill="#eea886"/>
    <path id="Path_89" data-name="Path 89" d="M2358.194,284.769a25.825,25.825,0,0,0-6.68-2.527s4.845,7.344,5.521,8.16a20.868,20.868,0,0,0,3.9,3.486,28.372,28.372,0,0,0,6.692,2.6c3.666.5,2.2-14.926,2.2-14.926l-3.381-.184a40.873,40.873,0,0,1-1.158,6.815c-.3,1.142-1.614.279-2.4-.263C2362.888,287.928,2359.938,285.837,2358.194,284.769Z" transform="translate(-2305.895 -262.641)" fill="#eea886"/>
    <path id="Path_90" data-name="Path 90" d="M2261.143,499.374a9.776,9.776,0,0,0,2.347,1.167,52.28,52.28,0,0,1,6.047,3.236c1.122.668,6.651,2.671,7.292,4.567s-.134,4.434,0,5.342a26.009,26.009,0,0,1-.134,6.517c-.427,2.083-2.831,13.462-2.831,13.462a11.663,11.663,0,0,1-4.3-.16s.855-6.651.321-9.482.08-7.292.4-8.948.6-2.778-.979-2.831-7.567-.587-11.066-2.778-3.579-2.083-5.075-2.083-5.217-11.742-5.217-11.742S2257.3,496.062,2261.143,499.374Z" transform="translate(-2213.826 -453.12)" fill="#eea886"/>
    <path id="Path_91" data-name="Path 91" d="M2268.081,503.125h0s-2.662-1.193-4.691,3.063a6.852,6.852,0,0,0-.2,4.6,20.639,20.639,0,0,1-7.171-2.356c-3.5-2.19-3.579-2.083-5.075-2.083s-5.495-11.871-5.495-11.871,9.629.264,13.475,3.576C2260.748,498.6,2263.32,499.7,2268.081,503.125Z" transform="translate(-2211.603 -452.085)" fill="#eb4747"/>
    <path id="Path_92" data-name="Path 92" d="M2321.825,179.828s5.253-2.123,4.93,4.745-1.667,7.6-5.067,6.636-3.636-5.113-4.079-7.2S2320.135,180.128,2321.825,179.828Z" transform="translate(-2275.714 -172.091)" fill="#eea886"/>
    <path id="Path_93" data-name="Path 93" d="M2312.68,176.39s-.014-1.835.748-2,1.156.892,1.156.892l.615-.033s-.549-1.859.178-2.286,5.079-.052,5.625-.678-.246-4.344-1.433-4.709-4.43-1.105-6.49.729c0,0-1.791.034-1.863,1.493A19.714,19.714,0,0,0,2312.68,176.39Z" transform="translate(-2270.067 -161.064)" fill="#163342"/>
    <path id="Path_94" data-name="Path 94" d="M2327.788,222.516c-.228-.605-1.517-.529-1.385.431s1.2,2.437,1.625,2.16S2328.1,223.35,2327.788,222.516Z" transform="translate(-2283.563 -209.971)" fill="#eea886"/>
    <path id="Path_95" data-name="Path 95" d="M2258.721,287.788s1.395-.238,1.893,5.094a62.881,62.881,0,0,1-.311,8.16c-.5,2.569-2.905,6.053-3.567,7.428s-2.288,5.239-2.2,7.668c0,0-10.611-3.352-13.049-6.464,0,0,1.261-4.253,1.644-5.352a17.487,17.487,0,0,0,.07-6.74c-.476-1.927-.284-5.922-.193-8.293a3.939,3.939,0,0,1,2.241-2.834,23.764,23.764,0,0,1,5.269-1.528Z" transform="translate(-2208.084 -265.799)" fill="#eb4747"/>
    <path id="Path_96" data-name="Path 96" d="M2328.42,247.553s-2.484.319-5.591-2.065a24.262,24.262,0,0,0,.3-4.664c-.18-1.578,5.432,4.518,5.432,4.518s-.03.239-.063.568c-.022.224-.046.49-.063.751A7.208,7.208,0,0,0,2328.42,247.553Z" transform="translate(-2280.394 -226.359)" fill="#eea886"/>
    <path id="Path_97" data-name="Path 97" d="M2433.379,830.091a9.3,9.3,0,0,0,1.832,0c.819-.107,1.478-1.033,2.8-.463s2.19,2.262,3.223,2.493,3.615,1.318,3.383,2.724-3.081,1.976-5.734.962a21.2,21.2,0,0,0-5.876-1.46c-1.478-.142-.534-2.3-.214-3.027S2433.379,830.091,2433.379,830.091Z" transform="translate(-2377.62 -749.867)" fill="#eddad3"/>
    <path id="Path_98" data-name="Path 98" d="M2223.2,491.1s-1.356,2.373-.048,2.8,1.868,1.848,2.99,2.515,5.066,3.531,5.707,5.427-.134,4.434,0,5.342a26,26,0,0,1-.134,6.517c-.427,2.083-2.831,13.461-2.831,13.461a11.663,11.663,0,0,1-4.3-.16s.855-6.651.321-9.482.08-7.292.4-8.948.358-2.787-1.226-2.84a13.113,13.113,0,0,1-7.907-3.29c-1.521-1.368.5-7.4.906-8.772.424-1.434,2.234-6.786,2.234-6.786S2219.354,487.785,2223.2,491.1Z" transform="translate(-2185.082 -445.334)" fill="#eea886"/>
    <path id="Path_99" data-name="Path 99" d="M2344.233,276.267a5.746,5.746,0,0,1-3.639-2.372,5.726,5.726,0,0,0,3.71,1.555C2344.282,275.674,2344.25,276.006,2344.233,276.267Z" transform="translate(-2296.187 -255.991)" fill="#a77860"/>
    <path id="Path_100" data-name="Path 100" d="M2296.677,833.421a6.026,6.026,0,0,1,2.072-.535c.829.03.9.571,1.105.88s2,3.234,2.534,3.766,2.426,1.095,2.16,2.426-2.663,1.864-5.623,1.48-3.067-2.927-3.54-3.548-.287-4.755.187-5.036S2296.677,833.421,2296.677,833.421Z" transform="translate(-2255.753 -752.847)" fill="#eddad3"/>
    <path id="Path_101" data-name="Path 101" d="M2226.559,475.661s-6.482-2.4-6.658,6.885c0,0-7.211-1.089-7.224-4.862s.686-5.9,4.135-14.586S2226.559,475.661,2226.559,475.661Z" transform="translate(-2182.469 -422.334)" fill="#eb4747"/>
    <path id="Path_102" data-name="Path 102" d="M2169.771,278.078s-1.021,1.073-1.458,1.566-1.773,1.545-2.511,2.156-2.424,2.3-2.722,1.155a41.993,41.993,0,0,1-.921-8.627l-3.438.267s-1.8,18.077,1.867,17.579a24.137,24.137,0,0,0,6.483-2.278,22.958,22.958,0,0,0,4.642-4.16,64.485,64.485,0,0,0,3.064-6.161S2172.9,274.8,2169.771,278.078Z" transform="translate(-2134.112 -256.376)" fill="#eea886"/>
    <path id="Path_103" data-name="Path 103" d="M2254.75,328.38a31.61,31.61,0,0,0,.352,3.484c.21.845.832,3.29,3.361,2.679,1.531-.37,4.524-4.763,2.074-12.946,0,0-4.643,3.215-5.687,6.213A2.6,2.6,0,0,0,2254.75,328.38Z" transform="translate(-2219.871 -298.397)" fill="#eea886"/>
    <path id="Path_104" data-name="Path 104" d="M2373.208,295.263s2.779.511,3.447,2.414-3.468-1.5-3.468-1.5Z" transform="translate(-2325.162 -274.987)" fill="#eb4747"/>
    <path id="Path_105" data-name="Path 105" d="M1981.09,112.616h-2.208c.048.09.1.173.142.25-4.855,1.19-8.516,6.494-8.516,12.857s3.65,11.651,8.494,12.852a2.232,2.232,0,0,0-.12.256h2.208c5.844,0,10.581-5.869,10.581-13.108S1986.935,112.616,1981.09,112.616Z" transform="translate(-1967.186 -112.616)" fill="#325c80"/>
    <path id="Path_106" data-name="Path 106" d="M1971.782,125.724c0,7.239-4.738,13.108-10.581,13.108s-10.582-5.869-10.582-13.108,4.738-13.108,10.582-13.108S1971.782,118.484,1971.782,125.724Z" transform="translate(-1949.504 -112.616)" fill="#3f74a0"/>
    <path id="Path_107" data-name="Path 107" d="M1981.09,112.616h-2.208c.048.09.1.173.142.25-4.855,1.19-8.516,6.494-8.516,12.857s3.65,11.651,8.494,12.852a2.232,2.232,0,0,0-.12.256h2.208c5.844,0,10.581-5.869,10.581-13.108S1986.935,112.616,1981.09,112.616Z" transform="translate(-1967.186 -112.616)" fill="#325c80"/>
    <path id="Path_108" data-name="Path 108" d="M1971.782,125.724c0,7.239-4.738,13.108-10.581,13.108s-10.582-5.869-10.582-13.108,4.738-13.108,10.582-13.108S1971.782,118.484,1971.782,125.724Z" transform="translate(-1949.504 -112.616)" fill="#3f74a0"/>
    <path id="Path_109" data-name="Path 109" d="M1975.335,134.926h-1.791c.039.073.077.14.115.2-3.938.965-6.906,5.267-6.906,10.428s2.96,9.45,6.889,10.423a1.816,1.816,0,0,0-.1.207h1.791c4.74,0,8.582-4.76,8.582-10.631S1980.075,134.926,1975.335,134.926Z" transform="translate(-1963.847 -132.449)" fill="#325c80"/>
    <ellipse id="Ellipse_403" data-name="Ellipse 403" cx="8.582" cy="10.631" rx="8.582" ry="10.631" transform="translate(1.115 2.477)" fill="#3f74a0"/>
    <path id="Path_110" data-name="Path 110" d="M1975.335,134.926h-1.791c.039.073.077.14.115.2-3.938.965-6.906,5.267-6.906,10.428s2.96,9.45,6.889,10.423a1.816,1.816,0,0,0-.1.207h1.791c4.74,0,8.582-4.76,8.582-10.631S1980.075,134.926,1975.335,134.926Z" transform="translate(-1963.847 -132.449)" fill="#325c80"/>
    <ellipse id="Ellipse_404" data-name="Ellipse 404" cx="8.582" cy="10.631" rx="8.582" ry="10.631" transform="translate(1.115 2.477)" fill="#3f74a0"/>
    <path id="Path_111" data-name="Path 111" d="M1961.79,148.488h-1.537c.033.063.066.121.1.174-3.38.829-5.928,4.521-5.928,8.951s2.541,8.111,5.913,8.947a1.535,1.535,0,0,0-.084.178h1.537c4.068,0,7.366-4.085,7.366-9.125S1965.858,148.488,1961.79,148.488Z" transform="translate(-1952.886 -144.506)" fill="#325c80"/>
    <ellipse id="Ellipse_405" data-name="Ellipse 405" cx="7.367" cy="9.125" rx="7.367" ry="9.125" transform="translate(0 3.982)" fill="#3f74a0"/>
    <path id="Path_112" data-name="Path 112" d="M2387.9,300.433s2.652.625,3.578,6.961a13.584,13.584,0,0,1-2.705,10.429Z" transform="translate(-2338.245 -279.583)" fill="#eb4747"/>
</svg>
