<svg xmlns="http://www.w3.org/2000/svg" width="11.646" height="10.587" viewBox="0 0 11.646 10.587">
    <path id="Icon_material-live-tv" data-name="Icon material-live-tv" d="M12.087,5.117H8.069L9.811,3.376,9.44,3,7.323,5.117,5.205,3l-.376.376L6.576,5.117H2.559A1.058,1.058,0,0,0,1.5,6.176v6.352a1.062,1.062,0,0,0,1.059,1.059h9.528a1.062,1.062,0,0,0,1.059-1.059V6.176A1.058,1.058,0,0,0,12.087,5.117Zm0,7.411H2.559V6.176h9.528ZM5.735,7.235v4.235L9.44,9.352Z" transform="translate(-1.5 -3)" fill="#df533e"/>
</svg>
