<svg xmlns="http://www.w3.org/2000/svg" width="14.268" height="14.268" viewBox="0 0 14.268 14.268">
    <path id="Icon_awesome-weight-hanging" data-name="Icon awesome-weight-hanging" d="M14.22,12.426,12.185,4.285a.908.908,0,0,0-.86-.717H9.646a2.675,2.675,0,1,0-5.023,0H2.944a.908.908,0,0,0-.86.717L.048,12.426a1.438,1.438,0,0,0,1.291,1.843H12.93A1.438,1.438,0,0,0,14.22,12.426ZM7.134,3.567a.892.892,0,1,1,.892-.892A.893.893,0,0,1,7.134,3.567Z" transform="translate(0 -0.001)" fill="#c5ccd7"/>
</svg>
