<?xml version="1.0" encoding="UTF-8"?>
<!DOCTYPE svg PUBLIC "-//W3C//DTD SVG 1.1//EN" "http://www.w3.org/Graphics/SVG/1.1/DTD/svg11.dtd">
<svg xmlns="http://www.w3.org/2000/svg" version="1.1" width="100px" height="100px" style="shape-rendering:geometricPrecision; text-rendering:geometricPrecision; image-rendering:optimizeQuality; fill-rule:evenodd; clip-rule:evenodd" xmlns:xlink="http://www.w3.org/1999/xlink">
    <g><path style="opacity:0.743" fill="#fefffe" d="M 99.5,55.5 C 99.5,60.5 99.5,65.5 99.5,70.5C 95.7717,70.1564 92.1051,69.4898 88.5,68.5C 87.6691,75.1419 87.1691,81.8085 87,88.5C 83.3454,95.7376 77.5121,98.2376 69.5,96C 66.735,94.8706 64.235,93.3706 62,91.5C 32.0828,97.7138 12.4162,86.3805 3,57.5C -0.151283,32.9599 9.34872,15.4599 31.5,5C 58.6563,-2.33443 78.4896,6.4989 91,31.5C 93.1347,39.0143 93.9681,46.6809 93.5,54.5C 95.5,54.8333 97.5,55.1667 99.5,55.5 Z M 40.5,6.5 C 65.6543,5.1505 81.821,16.4838 89,40.5C 89.499,44.8206 89.6657,49.1539 89.5,53.5C 85.5191,52.9791 81.5191,52.6458 77.5,52.5C 77.5,59.8333 77.5,67.1667 77.5,74.5C 67.3193,73.0227 61.986,77.356 61.5,87.5C 35.8034,93.0693 17.9701,83.7359 8,59.5C 3.56898,32.3468 14.4023,14.6801 40.5,6.5 Z M 44.5,34.5 C 55.9493,34.4487 61.4493,40.1154 61,51.5C 56.62,60.947 49.7866,63.447 40.5,59C 31.6562,49.064 32.9895,40.8974 44.5,34.5 Z M 46.5,40.5 C 53.5448,41.2857 56.0448,44.9524 54,51.5C 47.9516,57.0814 43.4516,55.9147 40.5,48C 40.9278,44.087 42.9278,41.587 46.5,40.5 Z M 81.5,56.5 C 86.0923,57.5984 90.759,58.2651 95.5,58.5C 95.5,60.8333 95.5,63.1667 95.5,65.5C 91.5341,64.8379 87.5341,64.5045 83.5,64.5C 83.9381,72.9433 83.4381,81.2767 82,89.5C 77.0704,93.4226 72.0704,93.4226 67,89.5C 64.5769,84.8392 65.7435,81.3392 70.5,79C 74.1516,78.5014 77.8183,78.3347 81.5,78.5C 81.5,71.1667 81.5,63.8333 81.5,56.5 Z"/></g>
    <g><path style="opacity:0.702" fill="#fefffe" d="M 41.5,11.5 C 45.8461,11.3343 50.1794,11.501 54.5,12C 55.8163,13.9776 55.3163,15.4776 53,16.5C 47.6433,15.2769 42.31,15.6102 37,17.5C 34.5438,17.7132 33.5438,16.7132 34,14.5C 36.5667,13.4131 39.0667,12.4131 41.5,11.5 Z"/></g>
    <g><path style="opacity:0.597" fill="#fefffe" d="M 58.5,13.5 C 62.3487,13.4587 64.5153,15.1253 65,18.5C 61.8827,19.3997 59.3827,18.3997 57.5,15.5C 57.8627,14.8165 58.1961,14.1499 58.5,13.5 Z"/></g>
    <g><path style="opacity:0.724" fill="#fefffe" d="M 42.5,30.5 C 60.4054,29.6577 67.5721,37.991 64,55.5C 58.5792,64.643 50.7458,67.4763 40.5,64C 32.0605,59.2792 28.8939,52.1126 31,42.5C 33.0188,36.6498 36.8522,32.6498 42.5,30.5 Z M 44.5,34.5 C 32.9895,40.8974 31.6562,49.064 40.5,59C 49.7866,63.447 56.62,60.947 61,51.5C 61.4493,40.1154 55.9493,34.4487 44.5,34.5 Z M 46.5,40.5 C 42.9278,41.587 40.9278,44.087 40.5,48C 43.4516,55.9147 47.9516,57.0814 54,51.5C 56.0448,44.9524 53.5448,41.2857 46.5,40.5 Z"/></g>
    <g><path style="opacity:0.708" fill="#fefffe" d="M 44.5,36.5 C 57.7054,36.9137 61.872,43.247 57,55.5C 48.7524,61.7525 42.0857,60.4192 37,51.5C 35.8077,44.5509 38.3077,39.5509 44.5,36.5 Z M 46.5,40.5 C 42.9278,41.587 40.9278,44.087 40.5,48C 43.4516,55.9147 47.9516,57.0814 54,51.5C 56.0448,44.9524 53.5448,41.2857 46.5,40.5 Z"/></g>
    <g><path style="opacity:0.664" fill="#fefffe" d="M 45.5,44.5 C 51.1581,43.6794 52.8248,45.846 50.5,51C 44.741,52.1387 43.0744,49.972 45.5,44.5 Z"/></g>
    <g><path style="opacity:0.574" fill="#fefffe" d="M 24.5,66.5 C 25.8333,66.5 27.1667,66.5 28.5,66.5C 28.8333,70.8333 26.8333,72.8333 22.5,72.5C 22.2525,70.1417 22.9192,68.1417 24.5,66.5 Z"/></g>
    <g><path style="opacity:0.612" fill="#fefffe" d="M 31.5,71.5 C 32.5,71.5 33.5,71.5 34.5,71.5C 34.9829,75.5769 33.3163,77.9103 29.5,78.5C 29.1658,75.812 29.8325,73.4786 31.5,71.5 Z"/></g>
    <g><path style="opacity:0.614" fill="#fefffe" d="M 38.5,74.5 C 42.8395,74.8538 43.6728,76.8538 41,80.5C 39.9887,81.3366 38.8221,81.67 37.5,81.5C 37.298,79.0504 37.6314,76.717 38.5,74.5 Z"/></g>
    <g><path style="opacity:0.593" fill="#fefffe" d="M 54.5,74.5 C 55.675,74.281 56.675,74.6143 57.5,75.5C 58.3482,77.4086 58.6816,79.4086 58.5,81.5C 57.1667,81.5 55.8333,81.5 54.5,81.5C 53.5615,79.0897 53.5615,76.7564 54.5,74.5 Z"/></g>
    <g><path style="opacity:0.663" fill="#fefffe" d="M 46.5,75.5 C 47.5,75.5 48.5,75.5 49.5,75.5C 49.5,77.8333 49.5,80.1667 49.5,82.5C 45.452,81.7378 44.452,79.4045 46.5,75.5 Z"/></g>
</svg>
