<svg xmlns="http://www.w3.org/2000/svg" width="17.048" height="17.052" viewBox="0 0 17.048 17.052">
    <path id="Icon_ionic-ios-settings" data-name="Icon ionic-ios-settings" d="M20.141,13.024a2.194,2.194,0,0,1,1.407-2.047A8.7,8.7,0,0,0,20.5,8.442a2.223,2.223,0,0,1-.892.191,2.189,2.189,0,0,1-2-3.081A8.669,8.669,0,0,0,15.071,4.5a2.192,2.192,0,0,1-4.093,0A8.7,8.7,0,0,0,8.442,5.552a2.189,2.189,0,0,1-2,3.081,2.151,2.151,0,0,1-.892-.191A8.888,8.888,0,0,0,4.5,10.982a2.193,2.193,0,0,1,0,4.093A8.7,8.7,0,0,0,5.557,17.61a2.19,2.19,0,0,1,2.89,2.89,8.746,8.746,0,0,0,2.535,1.052,2.188,2.188,0,0,1,4.084,0A8.7,8.7,0,0,0,17.6,20.5a2.192,2.192,0,0,1,2.89-2.89,8.746,8.746,0,0,0,1.052-2.535A2.2,2.2,0,0,1,20.141,13.024Zm-7.077,3.547a3.552,3.552,0,1,1,3.552-3.552A3.551,3.551,0,0,1,13.064,16.571Z" transform="translate(-4.5 -4.5)" fill="#c5ccd7"/>
</svg>
