<?xml version="1.0" encoding="UTF-8"?>
<!DOCTYPE svg PUBLIC "-//W3C//DTD SVG 1.1//EN" "http://www.w3.org/Graphics/SVG/1.1/DTD/svg11.dtd">
<svg xmlns="http://www.w3.org/2000/svg" version="1.1" width="512px" height="512px" style="shape-rendering:geometricPrecision; text-rendering:geometricPrecision; image-rendering:optimizeQuality; fill-rule:evenodd; clip-rule:evenodd" xmlns:xlink="http://www.w3.org/1999/xlink">
<g><path style="opacity:0.952" fill="#ffffff" d="M 157.5,132.5 C 163.094,131.743 167.261,133.743 170,138.5C 170.667,216.5 170.667,294.5 170,372.5C 166.124,378.567 160.957,379.9 154.5,376.5C 152.703,374.869 151.536,372.869 151,370.5C 150.333,293.833 150.333,217.167 151,140.5C 152.001,136.801 154.168,134.134 157.5,132.5 Z"/></g>
<g><path style="opacity:0.953" fill="#ffffff" d="M 384.5,132.5 C 391.309,131.481 395.809,134.148 398,140.5C 398.667,217.167 398.667,293.833 398,370.5C 395.148,378.006 389.981,380.173 382.5,377C 380.951,375.786 379.785,374.286 379,372.5C 378.333,294.5 378.333,216.5 379,138.5C 380.36,135.977 382.193,133.977 384.5,132.5 Z"/></g>
<g><path style="opacity:0.908" fill="#ffffff" d="M 43.5,167.5 C 51.3192,166.498 55.8192,169.831 57,177.5C 57.6667,229.5 57.6667,281.5 57,333.5C 55.2499,342.46 50.0833,345.293 41.5,342C 38.732,340.238 37.232,337.738 37,334.5C 36.3333,281.833 36.3333,229.167 37,176.5C 37.8328,172.506 39.9994,169.506 43.5,167.5 Z"/></g>
<g><path style="opacity:0.949" fill="#ffffff" d="M 194.5,179.5 C 200.59,178.137 205.09,180.137 208,185.5C 208.667,232.167 208.667,278.833 208,325.5C 204.252,331.542 199.085,333.042 192.5,330C 190.959,328.421 189.792,326.587 189,324.5C 188.333,278.5 188.333,232.5 189,186.5C 189.967,183.379 191.8,181.046 194.5,179.5 Z"/></g>
<g><path style="opacity:0.948" fill="#ffffff" d="M 345.5,179.5 C 353.003,177.663 357.837,180.329 360,187.5C 360.667,232.833 360.667,278.167 360,323.5C 357.832,330.836 352.999,333.336 345.5,331C 343.667,329.833 342.167,328.333 341,326.5C 340.333,279.167 340.333,231.833 341,184.5C 342.366,182.638 343.866,180.972 345.5,179.5 Z"/></g>
<g><path style="opacity:0.948" fill="#ffffff" d="M 80.5,184.5 C 86.2103,183.275 90.7103,184.941 94,189.5C 94.6667,233.5 94.6667,277.5 94,321.5C 89.3134,327.134 83.8134,327.968 77.5,324C 76.283,322.352 75.4497,320.519 75,318.5C 74.3333,276.5 74.3333,234.5 75,192.5C 75.6249,188.891 77.4582,186.224 80.5,184.5 Z"/></g>
<g><path style="opacity:0.948" fill="#ffffff" d="M 421.5,184.5 C 428.918,182.792 433.751,185.459 436,192.5C 436.667,234.5 436.667,276.5 436,318.5C 433.752,325.711 428.918,328.211 421.5,326C 419.667,324.833 418.167,323.333 417,321.5C 416.333,277.5 416.333,233.5 417,189.5C 418.366,187.638 419.866,185.972 421.5,184.5 Z"/></g>
<g><path style="opacity:0.949" fill="#ffffff" d="M 232.5,195.5 C 239.079,194.038 243.579,196.371 246,202.5C 246.667,237.833 246.667,273.167 246,308.5C 242.787,315.482 237.62,317.315 230.5,314C 228.951,312.786 227.785,311.286 227,309.5C 226.333,273.5 226.333,237.5 227,201.5C 228.36,198.977 230.193,196.977 232.5,195.5 Z"/></g>
<g><path style="opacity:0.948" fill="#ffffff" d="M 308.5,195.5 C 315.079,194.038 319.579,196.371 322,202.5C 322.667,237.833 322.667,273.167 322,308.5C 318.787,315.482 313.62,317.315 306.5,314C 304.951,312.786 303.785,311.286 303,309.5C 302.333,273.5 302.333,237.5 303,201.5C 304.36,198.977 306.193,196.977 308.5,195.5 Z"/></g>
<g><path style="opacity:0.942" fill="#ffffff" d="M -0.5,289.5 C -0.5,266.833 -0.5,244.167 -0.5,221.5C 4.61625,214.742 10.4496,214.075 17,219.5C 17.8624,221.087 18.5291,222.754 19,224.5C 19.6667,245.167 19.6667,265.833 19,286.5C 15.9136,294.752 10.4136,296.918 2.5,293C 1.36362,291.855 0.363622,290.688 -0.5,289.5 Z"/></g>
<g><path style="opacity:0.942" fill="#ffffff" d="M 121.5,215.5 C 126.165,215.579 129.665,217.579 132,221.5C 132.667,244.167 132.667,266.833 132,289.5C 128.378,294.818 123.544,296.318 117.5,294C 115.19,292.363 113.69,290.196 113,287.5C 112.333,266.167 112.333,244.833 113,223.5C 114.453,219.209 117.287,216.542 121.5,215.5 Z"/></g>
<g><path style="opacity:0.943" fill="#ffffff" d="M 273.5,215.5 C 278.1,215.605 281.6,217.605 284,221.5C 284.667,244.167 284.667,266.833 284,289.5C 280.337,294.833 275.503,296.333 269.5,294C 267.19,292.363 265.69,290.196 265,287.5C 264.333,266.167 264.333,244.833 265,223.5C 266.453,219.209 269.287,216.542 273.5,215.5 Z"/></g>
<g><path style="opacity:0.907" fill="#ffffff" d="M 462.5,215.5 C 469.309,215.479 473.143,218.813 474,225.5C 474.667,245.5 474.667,265.5 474,285.5C 471.513,294.553 466.013,297.053 457.5,293C 455.396,290.958 454.229,288.458 454,285.5C 453.333,265.5 453.333,245.5 454,225.5C 454.565,220.11 457.398,216.777 462.5,215.5 Z"/></g>
<g><path style="opacity:0.942" fill="#ffffff" d="M 511.5,221.5 C 511.5,244.167 511.5,266.833 511.5,289.5C 506.384,296.258 500.55,296.925 494,291.5C 493.138,289.913 492.471,288.246 492,286.5C 491.333,265.833 491.333,245.167 492,224.5C 495.086,216.248 500.586,214.082 508.5,218C 509.636,219.145 510.636,220.312 511.5,221.5 Z"/></g>
</svg>
