<svg xmlns="http://www.w3.org/2000/svg" width="14.268" height="14.268" viewBox="0 0 14.268 14.268">
    <path id="Icon_awesome-user-circle" data-name="Icon awesome-user-circle" d="M7.134.563A7.134,7.134,0,1,0,14.268,7.7,7.133,7.133,0,0,0,7.134.563Zm0,2.762A2.531,2.531,0,1,1,4.6,5.855,2.531,2.531,0,0,1,7.134,3.324Zm0,9.9A5.512,5.512,0,0,1,2.92,11.258a3.207,3.207,0,0,1,2.833-1.72.7.7,0,0,1,.2.032,3.809,3.809,0,0,0,1.177.2,3.794,3.794,0,0,0,1.177-.2.7.7,0,0,1,.2-.032,3.207,3.207,0,0,1,2.833,1.72A5.512,5.512,0,0,1,7.134,13.22Z" transform="translate(0 -0.563)" fill="#c5ccd7"/>
</svg>
