<svg xmlns="http://www.w3.org/2000/svg" width="36" height="36" viewBox="0 0 36 36">
    <path id="Icon_awesome-weight" data-name="Icon awesome-weight" d="M31.5,4.5H29.673A13.493,13.493,0,1,1,4.5,11.25,13.4,13.4,0,0,1,6.327,4.5H4.5A4.505,4.505,0,0,0,0,9V31.5A4.505,4.505,0,0,0,4.5,36h27A4.505,4.505,0,0,0,36,31.5V9A4.505,4.505,0,0,0,31.5,4.5ZM18,22.5A11.25,11.25,0,1,0,6.75,11.25,11.25,11.25,0,0,0,18,22.5Zm-.021-10.683,2.361-5.51a1.126,1.126,0,0,1,2.07.885l-2.367,5.523a2.8,2.8,0,1,1-2.064-.9Z" fill="#a1a1a1"/>
</svg>
