<svg id="Group_8858" data-name="Group 8858" xmlns="http://www.w3.org/2000/svg" width="59.382" height="92.751" viewBox="0 0 59.382 92.751">
    <path id="Path_62" data-name="Path 62" d="M623.063,936.547s.572,1.525.821,2.013,5.607,10.726,6.064,13.126a55.841,55.841,0,0,0,2.668,8.793,44.8,44.8,0,0,1,2.7,8.784c.748,3.66,2.329,9.923,2.661,10.7s-2.869.813-2.869.813-4.657-9.272-5.7-10.98a17.132,17.132,0,0,1-2.121-6.506c-.125-1.871-1.455-2.847-2.619-4.27s-6.778-12.2-7.818-13.176-1.684-.9-1.684-.9v-7.813Z" transform="translate(-585.722 -893.955)" fill="#2f4563"/>
    <path id="Path_63" data-name="Path 63" d="M253.425,936.547s-.572,1.525-.821,2.013-6.206,11.353-6.663,13.753-1.612,7.475-2.069,8.166a44.756,44.756,0,0,0-2.7,8.784c-.748,3.66-2.329,9.923-2.661,10.7s2.869.813,2.869.813,4.657-9.272,5.7-10.98a17.132,17.132,0,0,0,2.12-6.506c.125-1.871,1.455-2.847,2.62-4.27s6.778-12.2,7.817-13.176,1.7-.9,1.7-.9l-.02-7.813Z" transform="translate(-231.515 -893.955)" fill="#2f4563"/>
    <path id="Path_64" data-name="Path 64" d="M940.139,1657.046a8.686,8.686,0,0,0,2.054,2.237c.9.488,4.22,1.854,4.761,2.983.379.791-.14,2.352-3.328,1.836s-4.28-2.237-5.247-2.438a2.5,2.5,0,0,1-2.078-2.364c-.063-1.417.519-1.164.394-1.68S940.139,1657.046,940.139,1657.046Z" transform="translate(-887.68 -1571.453)" fill="#dbdff0"/>
    <path id="Path_65" data-name="Path 65" d="M128.634,1657.046a8.682,8.682,0,0,1-2.054,2.237c-.9.488-4.22,1.854-4.761,2.983-.379.791.14,2.352,3.328,1.836s4.28-2.237,5.247-2.438a2.5,2.5,0,0,0,2.078-2.364c.063-1.417-.519-1.164-.394-1.68S128.634,1657.046,128.634,1657.046Z" transform="translate(-121.712 -1571.453)" fill="#dbdff0"/>
    <path id="Path_66" data-name="Path 66" d="M467.134,484.018c-.849-2.925.428-9.066.428-9.066-1.648-.711-3.77-.088-4.68-.088a21.649,21.649,0,0,1-3.419-.693H455.4a21.647,21.647,0,0,1-3.419.693c-.91,0-3.032-.623-4.68.088,0,0,1.28,6.245.431,9.17,0,0,1.986,5.473,2.466,6.284s.006,3.8-.011,4.558c-.023,1.081-.188,4.158-.407,6.8,0,0,2.434,1.449,7.65,1.573a23.345,23.345,0,0,0,7.78-1.573c-.327-3.15-.538-5.8-.668-6.826-.094-.749-.361-3.724.119-4.534S467.134,484.018,467.134,484.018Z" transform="translate(-427.874 -459.174)" fill="#e55353"/>
    <path id="Path_67" data-name="Path 67" d="M770.913,334.7a9.019,9.019,0,0,0,2.059.7c.658.047,1.68-.952,2.949-.834s1.75.787,2.937.728,1.6-.3,1.68-.738a12.265,12.265,0,0,0,.964-6.816c-.634-3.689,1.151-2.561,1.151-2.561a19.733,19.733,0,0,1,2.091,6.625,23.161,23.161,0,0,1-.8,7.354,2.071,2.071,0,0,1-.634,1.363,50.213,50.213,0,0,1-5.913.611c-1.433.071-4.4-.411-5.2.129a9.421,9.421,0,0,0-1.806,2.767S769.018,337.145,770.913,334.7Z" transform="translate(-731.224 -318.918)" fill="#eea886"/>
    <path id="Path_68" data-name="Path 68" d="M228.3,334.7a9.019,9.019,0,0,1-2.059.7c-.658.047-1.68-.952-2.949-.834s-1.75.787-2.937.728-1.6-.3-1.68-.738a12.271,12.271,0,0,1-.963-6.816c.634-3.689-1.151-2.561-1.151-2.561a19.731,19.731,0,0,0-2.091,6.625,23.163,23.163,0,0,0,.8,7.354,2.07,2.07,0,0,0,.634,1.363,50.211,50.211,0,0,0,5.913.611c1.433.071,4.4-.411,5.2.129a8.449,8.449,0,0,1,1.716,2.609S230.193,337.145,228.3,334.7Z" transform="translate(-208.867 -318.918)" fill="#eea886"/>
    <path id="Path_69" data-name="Path 69" d="M574.865,401.089a6.5,6.5,0,0,0,.326,3.251s.686,3.066-2.464,3.274A2.823,2.823,0,0,1,569.442,405s.732-1.029.168-3.774S574.865,401.089,574.865,401.089Z" transform="translate(-542.721 -389.4)" fill="#eea886"/>
    <g id="Group_8849" data-name="Group 8849" transform="translate(25.267 0.515)">
        <path id="Path_70" data-name="Path 70" d="M549.783,231.543s4.049.562,3.577,7.04-4.044,6.027-4.282,6.025-3.572.2-4.006-7.69C545.071,236.918,544.829,231.084,549.783,231.543Z" transform="translate(-545.069 -231.517)" fill="#eea886"/>
    </g>
    <g id="Group_8850" data-name="Group 8850" transform="translate(33.403 5.531)">
        <path id="Path_71" data-name="Path 71" d="M681.577,315.8s.431-.493.6-.007a9.622,9.622,0,0,1-.569,2.787s-.077.192-.185.09A24.231,24.231,0,0,1,681.577,315.8Z" transform="translate(-681.401 -315.579)" fill="#eea886"/>
    </g>
    <g id="Group_8851" data-name="Group 8851" transform="translate(24.739 5.64)">
        <path id="Path_72" data-name="Path 72" d="M536.857,317.608s-.444-.482-.6.007a9.477,9.477,0,0,0,.639,2.773s.081.19.187.085A24.267,24.267,0,0,0,536.857,317.608Z" transform="translate(-536.231 -317.396)" fill="#eea886"/>
    </g>
    <g id="Group_8852" data-name="Group 8852" transform="translate(24.844 0)">
        <path id="Path_73" data-name="Path 73" d="M546.742,229.641l-.56.8a16.141,16.141,0,0,0-.121-2c-.1-.27.083-1.221,0-1.415s-2.748.594-7.156.243c0,0,.524,1.551.239,1.669s-.1,2.033-.1,2.033l-.487-.538s-.609-3.267-.568-3.815c.053-.73-.269-4.127,5.933-3.679a3.741,3.741,0,0,1,1.972.725,2.8,2.8,0,0,1,1.282,2.308A35.673,35.673,0,0,1,546.742,229.641Z" transform="translate(-537.986 -222.897)" fill="#fccca2"/>
    </g>
    <path id="Path_74" data-name="Path 74" d="M576.627,432.607s1.843,2.058,4.647-.1a3.077,3.077,0,0,1-2.44,1.683A2.306,2.306,0,0,1,576.627,432.607Z" transform="translate(-549.477 -419.994)" fill="#a77860"/>
    <path id="Path_75" data-name="Path 75" d="M535.967,471.293s.1,7.388,4.837,7.617v-8.476A21.694,21.694,0,0,0,535.967,471.293Z" transform="translate(-511.243 -455.66)" fill="#eea886"/>
    <path id="Path_76" data-name="Path 76" d="M621.843,471.293s-.1,7.388-4.837,7.617v-8.476A21.7,21.7,0,0,1,621.843,471.293Z" transform="translate(-587.446 -455.66)" fill="#eea886"/>
</svg>
